<?xml version="1.0" encoding="UTF-8"?>
<svg xmlns="http://www.w3.org/2000/svg" xmlns:xlink="http://www.w3.org/1999/xlink" width="24px" height="24px" viewBox="0 0 24 24" version="1.1">
<g id="surface1">
<path style=" stroke:none;fill-rule:evenodd;fill:rgb(0%,0%,0%);fill-opacity:1;" d="M 0 7.421875 L 0 9.878906 L 0.4375 9.902344 C 1.09375 9.933594 1.367188 10.148438 1.367188 10.625 C 1.367188 11.066406 1.113281 11.253906 0.472656 11.285156 L 0 11.308594 L 0 16.21875 L 1.40625 16.21875 L 1.40625 19.03125 L 9.882812 19.03125 L 9.898438 17.894531 C 9.917969 16.484375 10.011719 16.265625 10.59375 16.265625 C 11.175781 16.265625 11.269531 16.488281 11.289062 17.894531 L 11.304688 19.03125 L 22.59375 19.03125 L 22.59375 16.21875 L 24 16.21875 L 24 11.308594 L 23.527344 11.285156 C 22.890625 11.257812 22.632812 11.066406 22.632812 10.625 C 22.632812 10.148438 22.90625 9.933594 23.558594 9.902344 L 24 9.878906 L 24 4.96875 L 0 4.96875 L 0 7.421875 M 22.59375 7.472656 L 22.59375 8.566406 L 22.324219 8.699219 C 20.804688 9.4375 20.800781 11.773438 22.3125 12.5 L 22.59375 12.632812 L 22.59375 14.8125 L 1.40625 14.8125 L 1.40625 12.632812 L 1.6875 12.5 C 3.199219 11.773438 3.1875 9.386719 1.667969 8.691406 L 1.40625 8.570312 L 1.40625 6.375 L 22.59375 6.375 L 22.59375 7.472656 M 4.265625 10.59375 L 4.265625 13.40625 L 8.484375 13.40625 L 8.484375 7.78125 L 4.265625 7.78125 L 4.265625 10.59375 M 9.890625 10.59375 L 9.890625 13.40625 L 14.109375 13.40625 L 14.109375 7.78125 L 9.890625 7.78125 L 9.890625 10.59375 M 15.515625 10.59375 L 15.515625 13.40625 L 19.734375 13.40625 L 19.734375 7.78125 L 15.515625 7.78125 L 15.515625 10.59375 M 7.078125 10.59375 L 7.078125 12 L 5.671875 12 L 5.671875 9.1875 L 7.078125 9.1875 L 7.078125 10.59375 M 12.703125 10.59375 L 12.703125 12 L 11.296875 12 L 11.296875 9.1875 L 12.703125 9.1875 L 12.703125 10.59375 M 18.328125 10.59375 L 18.328125 12 L 16.921875 12 L 16.921875 9.1875 L 18.328125 9.1875 L 18.328125 10.59375 M 8.527344 16.371094 C 8.503906 16.453125 8.484375 16.769531 8.484375 17.074219 L 8.484375 17.625 L 2.8125 17.625 L 2.8125 16.21875 L 8.570312 16.21875 L 8.527344 16.371094 M 21.1875 16.921875 L 21.1875 17.625 L 12.703125 17.625 L 12.703125 17.074219 C 12.703125 16.769531 12.683594 16.453125 12.660156 16.371094 L 12.617188 16.21875 L 21.1875 16.21875 L 21.1875 16.921875 "/>
</g>
</svg>
