<?xml version="1.0" encoding="UTF-8"?>
<!DOCTYPE svg PUBLIC "-//W3C//DTD SVG 1.1//EN" "http://www.w3.org/Graphics/SVG/1.1/DTD/svg11.dtd">
<svg xmlns="http://www.w3.org/2000/svg" xmlns:xlink="http://www.w3.org/1999/xlink" version="1.1" width="24" height="24" viewBox="0 0 24 24">
  <path d="M12,4C14.21,4 16,5.79 16,8C16,10.21 14.21,12 12,12C9.79,12 8,10.21 8,8C8,5.79 9.79,4 12,4M12,6C10.9,6 10,6.9 10,8C10,9.1 10.9,10 12,10C13.1,10 14,9.1 14,8C14,6.9 13.1,6 12,6M12,13C14.67,13 20,14.33 20,17V20H4V17C4,14.33 9.33,13 12,13M12,14.9C9.03,14.9 5.9,16.36 5.9,17V18.1H18.1V17C18.1,16.36 14.97,14.9 12,14.9Z" />
</svg>
