<?xml version="1.0" encoding="UTF-8" standalone="no"?>
<svg version="1.0" width="300.000000pt" height="300.000000pt" viewBox="0 0 300.000000 300.000000" preserveAspectRatio="xMidYMid meet" id="svg96" sodipodi:docname="megamind.svg" inkscape:version="1.1.2 (0a00cf5339, 2022-02-04, custom)" xmlns:inkscape="http://www.inkscape.org/namespaces/inkscape" xmlns:sodipodi="http://sodipodi.sourceforge.net/DTD/sodipodi-0.dtd" xmlns="http://www.w3.org/2000/svg" xmlns:svg="http://www.w3.org/2000/svg">
   <defs id="defs100" />
   <sodipodi:namedview id="namedview98" pagecolor="#505050" bordercolor="#ffffff" borderopacity="1" inkscape:pageshadow="0" inkscape:pageopacity="0" inkscape:pagecheckerboard="1" inkscape:document-units="pt" showgrid="false" inkscape:zoom="2.1625" inkscape:cx="200.23121" inkscape:cy="203.00578" inkscape:window-width="1896" inkscape:window-height="1021" inkscape:window-x="12" inkscape:window-y="47" inkscape:window-maximized="0" inkscape:current-layer="svg96" />
   <metadata id="metadata2">
Created by potrace 1.10, written by Peter Selinger 2001-2011
</metadata>
   <g transform="translate(0.000000,300.000000) scale(0.050000,-0.050000)" fill="#414141" stroke="none" id="g94">
      <path id="path4" style="stroke-width:0.0666667" transform="matrix(15,0,0,-15,0,6000)" d="M 48.894531,0.69726562 C 48.254948,0.63268229 47.417057,1.150651 46.400391,2.3339844 45.267057,3.600651 43.266927,6.6 41.933594,9 c -1.4,2.4 -2.99961,4.333984 -3.59961,4.333984 -1.2,0 -0.468099,12.998959 0.865235,14.265625 0.4,0.466667 0.06758,1.667969 -0.732422,2.667969 -0.866667,1 -1.733594,3.464844 -1.933594,5.464844 -0.2,2 -0.732812,5.401562 -1.132812,7.601562 -0.4,2.2 -0.934242,5.998438 -1.267579,8.398438 -0.266666,2.4 -1.332031,5.335156 -2.332031,6.535156 -1.533333,1.933333 -1.534114,2.066406 0.199219,1.066406 1.6,-0.933333 1.733203,-0.800911 0.533203,0.732422 -2.2,2.866667 -3.065755,9.333854 -1.732422,12.867188 0.8,2.133333 0.666537,3.066406 -0.466797,3.066406 -1.266666,0.06667 -1.268099,0.266667 -0.134765,1 2.133333,1.4 0.60026,8.400651 -2.066407,9.333984 -3.399999,1.2 -6.933723,5.398438 -5.40039,6.398438 0.733333,0.466667 1.001562,1.934245 0.601562,3.267578 -1.733333,5.4 -1.800911,7.86758 -0.267578,7.26758 1,-0.4 1.59961,0.66627 1.59961,2.59961 0,1.8 -0.532552,3.13333 -1.199219,3 -2.933333,-0.53334 -1.934245,3.53255 1.732422,7.19922 3.466666,3.53333 4.001041,4.93307 3.734375,10.0664 -0.266667,4.4 0.266406,6.53477 2.066406,8.13477 1.266667,1.2 2.066016,3.13203 1.666016,4.33203 -0.4,1.33333 1.600651,4.5332 5.333984,8.5332 3.333333,3.53334 5.667578,7.0013 5.267578,7.66797 -0.466667,0.73333 -0.134505,2.19896 0.798828,3.26563 0.866667,1.06666 1.199349,1.93359 0.666016,1.93359 -0.533333,0 0.0012,0.93281 1.201172,2.13281 1.133333,1.13334 1.665888,2.73321 1.199218,3.53321 -0.6,0.93333 0.133334,1.13463 2,0.66796 2.200002,-0.6 2.867188,-0.13307 2.867188,1.9336 0,1.66666 1.40026,3.13281 3.933594,4.13281 3.333333,1.26667 5.932942,4.8655 5.599609,7.79883 -0.06667,0.46667 0.932552,0.7332 2.199219,0.5332 4,-0.6 12.334245,5.13373 9.267578,6.40039 -1.066667,0.4 -0.866797,0.66771 0.533203,0.73438 2.8,0.13333 4.599219,6.7987 2.199219,8.33203 -0.933333,0.6 -1.199606,1.13476 -0.59961,1.13476 0.666669,0 0.400391,0.99922 -0.599609,2.19922 -2.066667,2.4 -2.400781,6.06758 -0.800781,7.26758 0.666667,0.46667 0.201693,1.7319 -0.931641,2.86524 -1.066666,1.13333 -1.601432,2.40026 -1.134765,2.93359 0.533333,0.46667 -0.06589,0.5331 -1.199219,0.0664 -1.4,-0.53334 -2.334115,0.0672 -2.800781,1.86718 -0.6,2.26667 0.0014,2.73308 4.134765,3.06641 L 76.666016,218 l -7.332032,5.4668 c -5.733333,4.26666 -27.934635,18.39935 -46.667968,29.66601 -1.466667,0.93334 0.06667,1.80013 6,3.4668 4.4,1.2 10.534895,3.1345 13.601562,4.20117 5,1.8 6.266537,1.79843 12.533203,-0.0684 13.066667,-3.86666 20.266146,-2.46627 17.132813,3.40039 -1.533334,2.8 -2.600912,2.8668 -10.267578,0.4668 -6.066667,-1.86667 -2.733334,1.46641 4,4.06641 6.866666,2.6 8.801432,5.13372 7.134765,9.40039 -0.8,2.2 -12.401692,-1.6 -21.068359,-7 -2.733333,-1.66667 -7.532682,-3.93334 -10.666016,-5 l -5.732422,-1.9336 4.533204,3.9336 c 2.533332,2.13333 8.599869,5.9332 13.533203,8.5332 12.2,6.46667 13.466536,8.19948 6.533203,9.13281 -5.933334,0.73334 -10.533985,-1.19883 -20.333985,-8.79883 -7.933333,-6.13333 -11.999218,-0.66744 -8.199218,11.19922 0.8,2.66667 2.598828,3.33373 3.798828,1.40039 0.4,-0.66666 3.201432,-0.73255 6.134765,-0.19922 2.933334,0.53334 5.732813,0.4655 6.132813,-0.20117 0.933333,-1.6 6.867187,-1.46549 7.867187,0.20117 1.066667,1.73334 10.933334,1.73334 12,0 1.933334,-3.13333 3.598568,-1.06731 2.865235,3.66602 -1.866667,12.33333 -2.599737,14.9332 -5.066407,17.5332 -1.399999,1.53334 -2.066536,2.80052 -1.533203,2.86719 0.6,0 -0.0668,0.6668 -1.466797,1.4668 -2.399999,1.4 -2.398697,1.60026 0.667969,3.93359 L 66,321.26758 l -4.333984,0.0664 c -3.733334,0 -4.332032,0.46537 -4.332032,3.33204 0,9.53333 -6.000651,-2.93204 -7.333984,-15.33204 -1,-8.53333 -4.332552,-18.66796 -6.199219,-18.66796 -0.733333,0 -0.867317,0.7332 -0.333984,1.5332 0.666667,1.06667 0.265755,1.33437 -1.267578,0.73437 -1.733334,-0.66666 -2.199219,-0.0667 -2.199219,3 0,2.13334 -0.600911,4.06563 -1.267578,4.26563 -0.733333,0.26667 0.800651,4.66745 3.333984,9.80078 2.533334,5.13333 4.59961,10.06667 4.59961,11 0,0.93333 0.468099,1.66602 1.134765,1.66602 3,0 4.666146,6.66653 2.132813,8.5332 -1.4,1.06667 -3.00013,1.66732 -3.466797,1.33398 -0.466667,-0.26666 -0.599219,0.66615 -0.199219,2.13282 0.4,1.46666 1.399219,2.26718 2.199219,1.86718 0.866667,-0.4 0.4,0.20065 -1,1.33399 -2.4,1.93333 -2.400273,2.13255 0.06641,7.19922 2.333333,4.66666 2.400261,6.00039 0.933594,14.40039 -2.333333,13.4 -2.132813,18.66627 0.867187,24.59961 2.666667,5.13333 6.733204,7.80026 4.533204,2.93359 -1.933335,-4.4 -1.666537,-20.80026 0.466796,-24.93359 l 2,-3.86719 1.933594,4.5332 c 1.066667,2.53334 1.731511,7.0681 1.464844,10.13477 -0.2,3.06666 0.06797,5.26523 0.667969,4.86523 0.6,-0.33333 1.799349,0.001 2.666015,0.66797 0.866667,0.73333 3.734245,1.93294 6.267578,2.59961 4.066667,1.06667 4.598438,1.73307 4.398438,5.06641 -0.4,4.66666 -5.999219,10.26666 -9.199219,9 -1.6,-0.6 -2.000651,-0.3323 -1.333984,0.73437 1.2,1.93333 6.800651,1.99977 10.333984,0.0664 4.066667,-2.2 7.99987,-0.26745 4.533203,2.19922 -2.4,1.8 -2.266666,1.93359 2,1.93359 2.533334,0 3.932813,-0.46667 3.132813,-1 -1,-0.66667 -1.131771,-4.33268 -0.398438,-11.66602 1.4,-14.2 0.198959,-19.1345 -3.734375,-15.20117 -4.466666,4.46667 -21.333854,-11.66666 -19.867187,-19 0.533333,-2.86666 0.135026,-3.86679 -1.931641,-4.46679 -4.533333,-1.46667 -2.46706,-7.33217 5.59961,-15.79883 2,-2.13334 4.332291,-5.73334 5.265624,-8 0.933335,-2.33334 2.266928,-4.6 2.933594,-5 0.666667,-0.46667 2,-4.73321 3,-9.53321 1,-4.8 3.334505,-12.00143 5.201172,-16.13476 2.933333,-6.4 3.266146,-8.19948 2.132813,-13.13281 -6.2,-27.66667 -8.267188,-51.26732 -4.867188,-56.33399 2.866667,-4.46666 4.132552,-4.26562 6.199219,0.73438 0.933333,2.33333 3.600781,5.33411 5.800781,6.80078 3.066667,1.93333 3.332813,2.39909 1.132813,1.73242 -5.533334,-1.6 -3.665886,4.06654 2.800781,8.5332 6.6,4.53334 17.933333,4.99974 24.000003,1.06641 9.33333,-6.13333 16.20026,-27.13372 12.93359,-39.40039 -3.53333,-13 -30.80013,-27.46498 -39.466796,-20.93164 -4.266667,3.2 -5.267058,2.66575 -22.400391,-12.26758 -15.466667,-13.46667 -20.933854,-20.59922 -20.867187,-27.19922 0,-1.4 9.268229,-5.3332 10.601562,-4.5332 0.666667,0.46666 1.59974,0.19844 2.066406,-0.60156 0.466667,-0.73334 2.466797,-1.33204 4.466797,-1.33204 2.066667,0 4.799219,-0.80078 6.199219,-1.80078 1.333333,-1 3.466016,-1.59896 4.666016,-1.26562 1.266666,0.33333 3.134502,-0.26732 4.201172,-1.33399 1.733333,-1.73333 6.933203,-4.06783 9.533203,-4.20117 3.733333,-0.2 19.198959,-15.99961 20.265629,-20.59961 2,-9.333324 -4.19974,-12.133594 -11.066411,-4.93359 -3.066666,3.26667 -6.2,5 -11,6 -3.666666,0.8 -8.400127,2.7345 -10.466797,4.20117 -3.666666,2.8 -10.866015,5.13216 -17.666015,5.79883 -2,0.2 -5.133073,1.40156 -7.066406,2.60156 -3.066667,2 -3.534506,2.06563 -4.201172,0.26563 -0.6,-1.46667 -2.333073,-1.93295 -6.066407,-1.59961 -2.933332,0.2 -5.60026,-0.13438 -5.933593,-0.73438 -0.4,-0.6 -1.865365,-1.0664 -3.332031,-1.0664 -2.333335,0 -2.533855,-0.6 -1.867188,-5 1.8,-10.93334 2.467448,-13.26511 6.800781,-23.398442 2.533334,-5.8 4.533203,-12.733724 4.533203,-15.40039 0,-5.466668 6.133464,-55.067839 7.466797,-60.201172 2.15,-8.3500016 2.0125,-13.77500038 0.09375,-13.96875038 z M 42.816406,123.46094 c 0.432447,0.004 0.833594,0.047 1.183594,0.13867 1.333333,0.33333 2.267057,2.26667 2.400391,5 0.4,5.93333 -2.933334,7.26732 -6,2.33398 -1.333334,-2 -2.934636,-3.99987 -3.667969,-4.5332 -1.458334,-1.05 3.056857,-2.96756 6.083984,-2.93945 z m 52.179688,65.01562 c 0.553961,-0.0635 1.111588,-0.0269 1.669922,0.12305 1.466666,0.4 3.733334,0.73437 5.000004,0.73437 3.46666,0 2.86796,2.79896 -1.33204,6.26563 -3.333317,2.8 -3.467313,3.20013 -1.33398,4.4668 3.13333,1.86666 2.93294,4.66666 -0.400391,7 -1.933333,1.4 -2.865625,3.79974 -3.265625,8.0664 -0.8,10 7.399996,15.33438 20.999996,13.73438 6.4,-0.73334 6.73295,-0.66654 4.59961,1.46679 -5.93333,5.86667 -26.999475,0.19987 -35.132809,-9.46679 -6.499999,-7.75001 0.885899,-31.4374 9.195313,-32.39063 z m 12.427736,6.60742 c 0.69023,-0.1374 1.35443,-0.13333 1.93359,0 1.15834,0.26667 1.97656,1.05 1.97656,2.25 0,2.46667 -4.46679,3.39844 -6.46679,1.39844 -1.13334,-1.13333 -0.99987,-1.86549 0.46679,-2.79883 0.68334,-0.43333 1.39961,-0.7122 2.08985,-0.84961 z m 12.91992,7.6543 c 1.29612,0.16453 2.38047,0.8375 2.85547,2.0625 2.33333,6 -0.39922,9.53203 -7.19922,9.33203 -4.06667,-0.13333 -4.99974,-3.73255 -2.06641,-8.19922 1.2,-1.86666 3.20026,-2.9664 5.0586,-3.1914 0.46458,-0.0563 0.91952,-0.0586 1.35156,-0.004 z m -17.83789,16.25195 c 0.59368,-0.0478 1.42747,0.0604 2.49414,0.34375 2,0.53334 5.80065,1.13178 8.33398,1.39844 2.6,0.2 5.13269,0.46849 5.66602,0.53516 0.53333,0 1,0.59896 1,1.26562 0,1.8 -4.66615,2.59922 -7.13281,1.19922 -1.4,-0.8 -2.20117,-0.73216 -2.20117,0.20117 0,2.13334 -4.19857,1.66589 -6.86524,-0.80078 -2.7,-2.44999 -3.07595,-3.99915 -1.29492,-4.14258 z m -2.697266,15.23633 c 3.440586,-0.17198 8.241016,0.94023 7.791016,2.24024 -0.73333,2.06666 -11.332032,1.7332 -13.332032,-0.4668 -0.866667,-0.93333 -1.001172,-1.40026 -0.201172,-0.93359 0.733334,0.4 2.133334,0.33411 3,-0.19922 0.6,-0.38334 1.595325,-0.5833 2.742188,-0.64063 z M 56.375,239.09961 c 0.12526,-0.11699 0.292187,0.0664 0.492188,0.56641 0.399999,0.93333 1.933723,2.33476 3.40039,3.13476 1.733333,0.93333 2.398571,0.99977 1.865234,0.0664 -0.466666,-0.73334 -0.332421,-1.66667 0.267579,-2 1.866666,-1.2 1.800269,9.26523 -0.06641,10.86523 -2.866666,2.33334 -15.334765,2.93412 -17.134765,0.80078 -1.2,-1.46666 -1.132683,-1.86692 0.333984,-1.93359 1.2,0 0.932813,-0.73281 -0.867187,-2.13281 -2,-1.6 -2.066797,-1.93373 -0.466797,-1.40039 1.4,0.46666 2.601172,-0.13347 3.201172,-1.4668 0.8,-1.93333 1.133333,-1.73359 2,1.06641 l 1,3.33398 0.132812,-3.66602 c 0.06667,-2.73333 0.800781,-3.66796 2.800781,-3.66796 1.6,0 2.732163,-0.93204 2.798828,-2.33204 0.03334,-0.7 0.116928,-1.11738 0.242188,-1.23437 z" />
      <path d="M1030 5939 c-8 -34 -26 -67 -42 -72 -15 -6 -28 -21 -28 -32 0 -12 -21 -49 -46 -83 -67 -89 -79 -112 -58 -112 10 0 40 31 66 70 27 38 62 70 78 70 27 1 27 3 0 20 -20 13 -22 19 -5 20 14 0 25 11 25 24 0 13 34 54 75 90 l75 65 -63 1 c-55 0 -66 -8 -77 -61z" id="path6" />
      <path d="M1404 5965 c4 -19 -7 -48 -24 -65 -17 -16 -22 -23 -11 -15 32 25 51 17 51 -20 1 -28 4 -30 18 -7 10 16 15 38 10 50 -5 12 15 23 44 25 29 2 60 14 68 28 9 14 38 20 68 15 29 -6 52 -3 52 7 0 9 -64 17 -141 17 -125 0 -141 -4 -135 -35z" id="path8" />
      <path d="M5841 5961 c-25 -46 -28 -155 -4 -169 22 -14 143 136 143 177 0 47 -113 41 -139 -8z" id="path10" />
      <path id="path12" style="stroke-width:0.0666667" transform="matrix(15,0,0,-15,0,6000)" d="m 396.75391,13.419922 c -0.0718,-0.0649 -0.14517,-0.04978 -0.22071,0.04687 C 393.79987,16.866822 391.93242,24 393.73242,24 c 1.13334,0.06667 1.06719,0.39948 -0.13281,1.132812 C 391.93294,26.199479 387.8,42.40026 386,54.933594 379.13333,102.66693 346.4,167.5332 321,183.5332 c -10.26667,6.53334 -19.93307,16.59974 -19.06641,20.06641 0.6,2.4 -0.20065,3.60091 -4.33398,6.26758 -6.13333,3.86666 -11.79909,10.33242 -14.73242,16.73242 -1.13334,2.6 -3.13347,5.93346 -4.4668,7.4668 -2.33333,2.73333 -2.13463,12.59961 0.33203,12.59961 2.33334,0 13.33438,-15.39883 12.73438,-17.79883 -0.4,-1.66667 1.33281,-4.46732 5.13281,-8.33399 3.13333,-3.2 6.8,-7.99961 8,-10.59961 2.33333,-4.86666 12.60078,-12.59961 16.80078,-12.59961 4.8,0 8.06576,6.46589 4.73242,9.19922 -1.06666,0.86667 -2.86614,3.53386 -4.13281,5.86719 -3.8,7.33333 -5.19935,9.46641 -8.66602,13.06641 -1.8,1.93333 -7.20026,7.5332 -11.93359,12.5332 -6.33333,6.6 -11.20117,10.19987 -18.20117,13.5332 -12.86667,6.13334 -25.73255,22.53412 -31.19922,39.80078 -0.93333,2.93334 -2.73333,7.13204 -4,9.33204 -1.33333,2.2 -4.93333,10.00065 -8,17.33398 -7,16.53333 -22.33294,46.86628 -28.59961,56.59961 -2.6,4 -4.73437,7.86628 -4.73437,8.59961 0,0.66667 -0.93308,2.20065 -2.06641,3.33398 -1.06667,1.2 -3.33333,4.20078 -5,6.80078 -6.2,9.53334 -28.93359,4.73191 -28.93359,-6.13476 0,-2.93333 -12.93191,-13.33281 -18.86524,-15.13281 -3.73333,-1.2 -11.40104,-1.73321 -21.73437,-1.53321 -24.66667,0.4 -28.93373,-2.46601 -14.40039,-9.66601 4.93333,-2.46667 11.73333,-5.86654 15,-7.53321 3.33333,-1.73333 7.6677,-4 9.73437,-5 2.06667,-1.06666 6.19948,-2.06731 9.13281,-2.33398 3,-0.2 5.86758,-0.93268 6.26758,-1.66602 0.46667,-0.73333 2.73307,-2.26679 5.06641,-3.46679 3.33333,-1.73334 4.46549,-3.40078 5.79883,-8.80078 1.6,-6.6 3.13346,-8.33308 4.46679,-5.06641 0.33334,0.93333 0.73438,0.26628 0.73438,-1.40039 0.0667,-2 -0.40039,-2.73281 -1.40039,-2.13281 -1.06667,0.66666 -1.26628,-0.20026 -0.59961,-2.9336 0.46666,-2.13333 0.99974,-4.80052 1.0664,-5.86718 0.0667,-1.13334 0.73373,-2.39883 1.40039,-2.79883 1.8,-1.2 -1.80052,-6.39961 -3.86718,-5.59961 -1,0.4 -3.06628,4.93255 -4.59961,10.19922 -3.86667,13.2 -11.33438,19.99935 -25.73438,23.66601 -5.6,1.4 -18.46614,9.00013 -31.13281,18.4668 -2.4,1.8 -4.33398,4.33437 -4.33398,5.73437 0,1.4 -0.5987,2.13269 -1.33204,1.66602 -0.8,-0.46667 -3.466662,-0.13398 -5.999996,0.66602 -6.2,2.06666 -4.534497,5.7345 2.798828,6.20117 2.733338,0.2 7.734768,1.53359 11.134768,2.93359 5.46666,2.33333 7.26575,2.46589 18.73242,1.19922 17.66667,-2 33.06719,2.79935 37.86719,11.66602 0.8,1.46666 1.79948,2.93398 2.13281,3.33398 0.4,0.33333 1.79922,1.99935 3.19922,3.66602 l 2.5332,3 H 143.5332 113.26758 l 1.93164,-3 c 2.93333,-4.46667 0.13333,-8.46511 -10,-14.39844 -10.266676,-6.06667 -10.998569,-5.80052 -9.865236,4.13281 1.133334,9.86667 0.132943,12.93268 -4.40039,13.66602 -2,0.26666 24.399346,0.60104 58.666016,0.73437 L 211.86719,400 l -3.26758,-3.5332 c -4.93333,-5.26667 -3.80026,-7.60013 2.06641,-4.4668 2.06666,1.13333 2.93385,0.66732 4.86718,-2.66602 1.33334,-2.2 2.93321,-4 3.53321,-4 0.66666,0 0.86679,-0.86692 0.46679,-1.93359 -0.4,-1.13333 -0.20013,-2.33411 0.53321,-2.80078 0.66666,-0.4 1.26757,-0.20013 1.26757,0.5332 0,0.66667 0.86693,1.6 1.9336,2 1.46666,0.53334 1.79987,-0.39922 1.5332,-4.19922 -0.4,-5.6 2.80013,-13.59961 5.4668,-13.59961 1.73333,0 3.79987,-6.33333 3.5332,-11 C 233.73411,353.06732 234.5332,352 235.5332,352 c 1.06667,0 2.26602,-0.93307 2.66602,-2.06641 0.46667,-1.13333 1.53372,-1.80013 2.40039,-1.46679 2.8,1.06666 4.9345,-3.93269 3.20117,-7.66602 -2.2,-4.8 -0.53346,-8.53411 2.5332,-5.80078 2,1.73333 5.46602,2.66719 14.66602,3.86719 0.93333,0.13333 1.66602,0.80013 1.66602,1.46679 0,0.6 0.4664,0.86654 1.0664,0.53321 1.8,-1.13334 4.40156,1.26562 4.60156,4.26562 0.26667,3.06667 1.39935,3.39987 5.66602,1.53321 2.53333,-1.06667 2.53268,-1.1323 -0.33398,-1.26563 -1.66667,0 -3,-0.60117 -3,-1.20117 0,-0.66667 1.66796,-0.93294 3.66796,-0.59961 l 3.66602,0.59961 -4.19922,-2.79883 c -3.86667,-2.6 -10.93398,-15.40026 -9.33398,-16.93359 0.33333,-0.4 -1.20013,-2.39961 -3.4668,-4.59961 -4.46667,-4.26667 -6.00078,-4.26649 -3.80078,-0.0664 3,5.53333 0.86771,14.86524 -3.26563,14.86524 -1.6,0 -1.73268,-0.53295 -0.66601,-2.59961 1.46666,-2.6 0.4664,-6.19948 -2.9336,-11.13282 -1.4,-2 -1.26679,-2.73307 0.53321,-4.0664 1.86666,-1.4 1.93203,-1.93477 0.33203,-4.13477 -2.2,-3 -2.4668,-10.86614 -0.4668,-12.13281 0.8,-0.46667 4.3336,1.93424 7.9336,5.26758 2.08383,1.94068 3.31058,2.32447 4.68945,2.98242 -1.17126,-1.20116 -0.43326,-5.57825 2.11133,-11.51563 3.93333,-9.13333 3.13333,-12.3332 -2,-7.5332 -3.66667,3.4 -7.06771,3.93294 -3.73438,0.59961 0.86667,-0.86667 1.60156,-2.93294 1.60156,-4.59961 0,-3.93333 1.66576,-4.79987 4.73243,-2.5332 2.13333,1.53333 2.73307,1.46601 4.0664,-0.33399 1.53334,-2.13333 9.86719,4.46576 9.86719,7.73243 0,1.46666 4.20052,3.13411 6.86719,2.80078 1.53333,-0.2 2.06601,0.46614 1.66601,2.13281 -0.46666,1.8 1.46602,3.7332 7.66602,7.5332 l 8.33398,5.20117 L 308.86719,306 c 2.4,-1.26667 5.66562,-4.06589 7.26562,-6.19922 3.4,-4.4 6.33464,-4.80065 10.66797,-1.33398 l 3.06641,2.5332 -2.59961,8.4668 c -1.4,4.73333 -2.40117,8.73359 -2.20117,8.93359 0.46666,0.46667 -7.19896,6.93359 -8.26563,6.93359 -1.73333,0 -0.66758,-6.73359 1.73242,-10.93359 3.4,-6 4.53295,-11.3332 2.59961,-12.5332 -1.66666,-1 -7.79883,5.60039 -7.79883,8.40039 0,3 -4.66744,4.39831 -9.80078,2.93164 -9.26666,-2.53333 -9.46679,0.73372 -0.46679,6.40039 12.66666,8 18.53424,10.26693 20.26757,7.93359 0.93334,-1.2 2.06628,-2.19922 2.59961,-2.19922 2.26667,0 34.20026,25.93191 42.9336,34.86524 C 384.40052,376.26589 392,384.80013 392,386.4668 c 0,0.86666 0.66706,1.5332 1.40039,1.5332 0.8,0 1.13242,1.06732 0.73242,2.33398 -0.4,1.26667 -0.19987,3.19896 0.4668,4.26563 0.8,1.26667 0.73411,2.6013 -0.19922,3.66797 -1.06667,1.33333 -0.7332,1.73242 1.4668,1.73242 2.53333,0 2.79883,-0.7332 2.79883,-8.5332 v -8.53321 l -13,-12.33398 c -13,-12.33333 -29.26524,-26.33359 -42.86524,-36.93359 -4,-3.13334 -6.40065,-5.66602 -5.33398,-5.66602 0.68948,0.046 2.03365,0.69217 3.39843,1.51172 -0.0209,-0.0562 -0.0426,-0.11216 -0.0645,-0.16797 -0.0561,-0.0464 -0.10856,-0.0898 -0.14453,-0.13086 -0.0102,-0.0117 -0.0208,-0.0334 -0.0312,-0.0469 -0.0976,-0.0325 -0.19459,-0.0645 -0.28906,-0.10547 -0.20246,-0.0877 -0.40299,-0.21504 -0.53125,-0.39453 -0.6114,-0.8552 -0.90956,-1.48468 -0.83203,-2.28125 -0.0223,-0.078 -0.0372,-0.14815 -0.0566,-0.22266 -1.04572,-0.0975 -2.10445,-0.28817 -0.95508,-0.50781 -0.15478,-0.15119 -0.36529,-0.26006 -0.46289,-0.45313 -0.22186,-0.43862 -0.36883,-0.91041 -0.52149,-1.3789 -0.25887,-0.0457 -0.16428,-0.20404 -0.10937,-0.34766 -0.0151,-0.0623 -0.0203,-0.17562 0,-0.17969 -0.0514,-0.4473 0.0151,-0.89358 0.17773,-1.32226 -10e-4,-0.0928 7e-5,-0.18407 -0.002,-0.27735 -0.58666,0.67992 -0.96615,0.39614 -1.50977,-0.96289 -0.46666,-1.26666 -0.26653,-1.8651 0.4668,-1.39844 0.8,0.53334 1.33398,-1.5345 1.33398,-5.20117 0,-3.26666 0.46641,-6.26601 1.06641,-6.66601 1.26667,-0.73334 0.39948,-10.13282 -0.86719,-10.13282 -0.46666,0 -2.86705,-1.8 -5.40039,-4 -3.06666,-2.73333 -5.46601,-3.80039 -7.66601,-3.40039 -1.8,0.33334 -2.86706,6.5e-4 -2.40039,-0.66601 1.4,-2.33334 -2.13308,-1.26823 -5.06641,1.39844 -1.6,1.53333 -3.66628,2.4664 -4.59961,2.0664 -1.53333,-0.6 -2.19948,1.00065 -2.13281,5.33399 0,1.2 -2.2013,1.40078 -8.66797,0.80078 -1,-0.13334 -1.46615,-0.66758 -1.13281,-1.26758 0.4,-0.6 -0.53334,-1.13229 -2,-1.26563 -3.13334,-0.2 -12.86667,-8.2677 -13,-10.73437 -0.0667,-1 -0.66732,-1.4 -1.33399,-1 -0.66666,0.4 -1.53359,-0.19896 -1.93359,-1.26563 -0.46667,-1.13333 -1.53346,-2 -2.4668,-2 -0.93333,-0.0667 -3.1319,-1.53398 -4.86523,-3.33398 -3.2,-3.33333 -3.13386,-7.33398 0.13281,-7.33398 0.93333,0 2.26667,-1.33334 3,-3 0.8,-1.66667 2.40078,-2.93217 3.80078,-2.79883 1.46667,0.13333 2.13242,-0.46654 1.73242,-1.53321 -0.46666,-1.13333 0.79922,-2.33476 3.19922,-3.13476 2.2,-0.8 3.9336,-0.99961 3.9336,-0.59961 0,0.46667 1.40117,-0.86719 3.20117,-2.86719 2.26666,-2.66666 3.3319,-3.19857 3.86523,-1.86523 0.53334,1.26666 0.73412,1.06679 0.80078,-0.53321 0.0669,-1.2667 0.73373,-2.33398 1.40039,-2.33398 1.86667,0 8.06641,-6.06745 8.06641,-7.80078 0,-0.86667 1.19935,-1.5332 2.66602,-1.5332 1.46666,0 2.66796,-0.86667 2.66796,-2 0,-1.13334 0.46667,-2.06641 1,-2.06641 0.32494,-0.0406 1.46281,-0.24324 2.39649,-0.40625 0.073,-0.26345 0.15157,-0.52679 0.20508,-0.78906 0.58414,-1.37877 1.08984,-2.83646 2.02539,-3.99414 0.0965,-0.23064 0.19661,-0.45972 0.29492,-0.68946 0.12572,-0.30902 0.25436,-0.6166 0.39453,-0.91992 0.0592,-0.13553 0.11631,-0.27292 0.17578,-0.4082 0.51112,-1.23749 1.38409,-2.26317 1.82617,-3.50391 -3.07356,-3.00725 -3.14033,-4.09373 -0.65234,-3.75586 3.13333,0.4 9.80052,-2.86705 8.86719,-4.40039 -0.4,-0.66666 -0.0678,-1.99974 0.79883,-3.0664 0.86666,-1.06667 1.20078,-2.46615 0.80078,-3.13282 -0.46667,-0.66666 0.13229,-1.59974 1.26562,-2.0664 2,-0.73334 2.20091,-6.33256 0.26758,-8.19922 -0.40746,-0.41595 0.0459,-1.48542 0.87695,-2.83789 -0.12839,-0.35632 -0.19818,-0.76492 -0.1875,-1.23047 0.01,-0.39143 0.0227,-0.76942 0.0449,-1.14453 -0.32045,-0.3184 -0.64119,-0.63601 -0.96485,-0.95117 -0.19367,-0.18976 -2.04306,-2.03544 -2.03906,-2.12891 0.002,-0.0508 0.007,-0.10158 0.01,-0.15234 -0.58357,-0.15373 -0.99886,-0.33734 -1.75,-0.625 v -0.002 c -1.50223,-0.57533 -2.25797,-1.48104 -2.43945,-2.34375 -4.00175,1.9459 -3.67107,-0.54672 4.44922,-8.85156 14.73333,-15.13333 21.19974,-22.40026 23.06641,-25.93359 1.06666,-1.93334 3.00065,-4.33399 4.33398,-5.33399 2.13333,-1.53333 4.4655,-5.39831 4.79883,-7.93164 0.0667,-0.53333 1.46667,-2.40091 3,-4.26758 3.4,-3.86666 9.80078,-15 9.80078,-17 0,-0.73333 1.19909,-2.59896 2.73242,-4.26562 1.46667,-1.6 2.06732,-3.13399 1.33399,-3.33399 -0.8,-0.26666 -0.60013,-1.26705 0.5332,-2.40039 1.06667,-1.06666 1.60117,-2.86692 1.20117,-3.93359 -0.46667,-1.13333 0.13255,-3.06537 1.19922,-4.33203 2.13333,-2.4 3.86693,-8.334247 3.93359,-13.26758 0,-1.666667 0.60065,-3 1.33399,-3 0.73333,0 0.99961,-0.866927 0.59961,-1.933594 -0.4,-1.133333 -0.19987,-2.332422 0.46679,-2.732422 0.66667,-0.4 0.86511,-1.733593 0.39844,-2.933593 -0.6,-1.466667 -0.33229,-1.867839 0.73438,-1.201172 0.8,0.533333 1.5332,0.266797 1.5332,-0.533203 0,-0.629317 0.45121,-0.802039 0.98438,-0.673828 0.0522,-0.115911 0.0996,-0.233944 0.15234,-0.34961 5e-4,-0.143827 0.009,-0.287885 0.004,-0.43164 -0.0308,-0.897104 -0.29792,-1.770285 0.008,-2.669922 0.32049,-1.12016 0.70113,-2.159334 1.42187,-3.083985 0.20942,-0.377502 0.49239,-0.715517 0.66016,-1.113281 0.52653,-1.248499 -1.10046,-3.757058 0.51172,-4.671875 1.28235,-1.53282 2.12,-3.240006 2.80078,-5.021484 -0.0643,-27.414462 -0.71252,-46.25694 -1.78906,-47.230469 z M 336.86719,323.47461 c 0.001,0.005 4.1e-4,0.0153 0.002,0.0195 0.037,0.10663 0.0704,0.2147 0.10547,0.32227 -0.0417,-0.13769 -0.0667,-0.27715 -0.0879,-0.41602 -0.005,0.0236 -0.01,0.049 -0.0195,0.0742 z m 3.75781,5.69141 c 0.041,0.0137 0.0817,0.0283 0.12305,0.041 -0.0639,-0.16827 -0.12987,-0.33541 -0.19336,-0.50391 -0.0966,-0.0659 -0.19144,-0.13241 -0.28125,-0.20507 0.11322,0.26722 0.23414,0.5169 0.35156,0.66797 z m 0.12305,0.041 c 0.0173,0.0457 0.035,0.0913 0.0527,0.13672 0.14325,0.11853 0.33703,0.23826 0.5332,0.34961 -0.0116,-0.0505 -0.0211,-0.10514 -0.0312,-0.1582 -0.048,-0.0466 -0.0895,-0.0983 -0.1289,-0.14649 -0.006,-10e-4 -0.0182,-0.005 -0.0234,-0.006 -0.0145,-0.0227 -0.0268,-0.0474 -0.041,-0.0703 -0.12086,-0.0331 -0.24182,-0.0689 -0.36133,-0.10547 z m 0.36133,0.10547 c 0.005,10e-4 0.009,0.003 0.0137,0.004 -0.022,-0.0311 -0.048,-0.0609 -0.0664,-0.0937 0.0178,0.0297 0.0345,0.0605 0.0527,0.0898 z m 0.0137,0.004 c 0.0169,0.0239 0.0318,0.0491 0.0508,0.0723 0.0263,0.006 0.0731,0.0188 0.10742,0.0274 -0.003,-0.0184 -0.009,-0.034 -0.0117,-0.0527 -0.0494,-0.0139 -0.0969,-0.0333 -0.14648,-0.0469 z M 398.43164,83.126953 c -0.11187,0.356833 -0.22414,0.713544 -0.33594,1.070313 0.10025,-0.189339 0.17322,-0.314928 0.2793,-0.517578 0.0192,-0.03664 0.0357,-0.07462 0.0547,-0.111329 0.001,-0.149873 4.6e-4,-0.291837 0.002,-0.441406 z m -5.58203,7.511719 c -0.0527,-0.0015 -0.10701,0.0041 -0.16016,0.0039 -0.0653,0.08716 -0.14332,0.163823 -0.21679,0.244141 0.0219,0.08714 0.0627,0.187508 0.0937,0.28125 0.72479,-0.06488 1.45907,-0.273665 1.2207,-0.367188 -0.28878,-0.113299 -0.6086,-0.152548 -0.9375,-0.162109 z m 0.95508,14.199218 c -0.0734,0.37257 -0.0577,0.71747 0.0488,1.02149 0.0189,-0.0475 0.0375,-0.0953 0.0566,-0.14258 0.0512,-0.24098 0.0988,-0.46198 0.14453,-0.67774 -0.11222,-0.0423 -0.19198,-0.10983 -0.25,-0.20117 z m -22.48438,49.08008 c -0.0657,0.0558 -0.12596,0.10847 -0.1914,0.16406 0.0324,0.018 0.0636,0.0381 0.0957,0.0566 0.0319,-0.0736 0.0639,-0.1471 0.0957,-0.2207 z m -2.1914,1.90039 c -0.0258,0.11878 -0.0429,0.20643 -0.0625,0.29883 0.0965,-0.14787 0.099,-0.10807 0.0625,-0.29883 z m -7.94336,6.77148 c -2.06446,1.78658 -4.84975,4.33623 -7.2461,6.48633 1.23382,-0.94967 2.46392,-1.90395 3.68555,-2.86914 0.16972,-0.21564 0.33594,-0.43362 0.51172,-0.64453 0.34348,-0.28047 1.27744,-1.45847 1.62109,-1.54688 0.0195,-0.005 0.0391,-0.009 0.0586,-0.0137 0.37149,-0.39736 0.8235,-0.86296 1.36914,-1.41211 z m -2.83008,3.00196 c -0.11665,0.0541 -0.20677,0.13001 -0.24414,0.23242 0.0381,-0.0303 0.0771,-0.0598 0.11523,-0.0898 0.0402,-0.0446 0.09,-0.0993 0.12891,-0.14258 z m -27.66016,23.70117 c -0.20751,0.14595 -0.40037,0.27587 -0.59961,0.41211 0.1799,0.0501 0.35822,0.0989 0.54883,0.17187 0.0177,0.007 0.035,0.0146 0.0527,0.0215 -8.7e-4,-0.20187 -7.2e-4,-0.40363 -0.002,-0.60547 z m 2.58203,54.21484 c -0.26034,0.46945 -0.52057,0.93969 -0.77929,1.41016 0.0353,-0.0277 0.0698,-0.0501 0.10547,-0.0781 0.15185,-0.11945 0.18813,-0.15144 0.32031,-0.25586 0.1232,-0.35691 0.23377,-0.71814 0.35351,-1.07617 z m 36.92578,30.02539 c -0.14729,0.43636 -0.3125,0.8662 -0.46484,1.30078 0.14469,0.24486 0.30453,0.4539 0.45899,0.67579 0.0208,-0.56827 0.0313,-1.1372 0.0215,-1.70508 -0.002,-0.0904 -0.0125,-0.181 -0.0156,-0.27149 z m -96.26953,20.625 c -1.33346,-0.12526 -2.26771,0.84154 -2.73437,2.90821 -0.53333,2 -1.59987,4.46627 -2.5332,5.59961 -0.86667,1.06666 -1.99844,3.06731 -2.39844,4.33398 -0.44838,1.21702 -1.39174,2.16313 -2.11524,2.24219 4.38986,2.43018 7.25857,2.11442 6.78125,-4.04297 -0.26666,-3 0.1336,-3.39857 2.9336,-2.86524 5.46666,1 8.06588,-1.26653 5.19922,-4.5332 -2.06667,-2.3 -3.79935,-3.51732 -5.13282,-3.64258 z m -9.78125,15.08399 c -0.0223,-0.0123 -0.0479,-0.0304 -0.0703,-0.043 0.024,10e-4 -0.0403,0.13476 -0.0156,0.13476 0.0287,0 0.0564,-0.0886 0.0859,-0.0918 z m 74.25977,13.39453 c -1.2264,0.87415 -0.88903,1.06905 -0.0391,0.98437 0.0287,-0.32839 0.0216,-0.65614 0.0391,-0.98437 z m 2.46484,6.2793 c 0.0418,0.0755 0.0875,0.14839 0.13086,0.22265 -0.0242,-0.0551 -0.044,-0.1134 -0.0586,-0.17578 -0.0244,-0.0154 -0.0479,-0.0315 -0.0723,-0.0469 z m 0.3086,0.80273 c 0.0637,0.0403 0.12403,0.0778 0.1875,0.11914 -0.006,-0.0207 -0.0142,-0.0355 -0.0195,-0.0566 -0.0654,-0.0249 -0.12088,-0.0446 -0.16797,-0.0625 z m 3.43945,0.0723 c -0.011,0.0704 -0.0185,0.14059 -0.0293,0.21093 0.0633,-0.0533 0.13108,-0.0942 0.18555,-0.16797 -0.053,-0.0117 -0.10322,-0.0315 -0.15625,-0.043 z m -2.28516,0.5996 c -0.002,0.0209 -0.005,0.0417 -0.008,0.0625 0.0712,0.0545 0.15299,0.0851 0.22266,0.14063 -0.0696,-0.0632 -0.14808,-0.14572 -0.21485,-0.20313 z m 2.36914,0.12305 c 0.0277,0.0349 0.056,0.0689 0.084,0.10352 0.0617,0.0211 0.0843,0.0319 0.18555,0.0645 -0.0131,-0.0487 -0.0256,-0.094 -0.0391,-0.14258 -0.0768,-0.009 -0.15378,-0.0151 -0.23047,-0.0254 z m -0.18945,0.0606 c -0.0221,0.16663 -0.052,0.33308 -0.0684,0.5 0.22631,-0.10842 0.39747,-0.2207 0.54297,-0.33594 -0.003,-0.01 -0.005,-0.0173 -0.008,-0.0273 -0.32437,-0.0774 -0.30907,-0.093 -0.4668,-0.13672 z m 0.16211,0.75 c -0.0164,-0.0175 -0.03,-0.0145 -0.0371,0.0195 -0.0438,0.21172 0.1121,0.41809 0.16797,0.62695 -0.10091,-0.0152 -0.18349,-0.0339 -0.28125,-0.0488 0.32882,0.20936 0.70673,0.50863 1.00391,0.67773 8.1e-4,-0.0271 0.007,-0.0531 0.008,-0.0801 -0.10716,-0.0964 -0.21487,-0.19196 -0.31836,-0.29687 -0.14903,-0.15107 -0.23867,-0.35023 -0.35547,-0.52735 -0.0575,-0.0871 -0.13831,-0.31859 -0.1875,-0.37109 z m 2.48633,2.03125 c 0.0274,0.0181 0.059,0.0398 0.0684,0.041 -0.001,-0.009 -0.003,-0.0182 -0.004,-0.0273 -0.0227,-0.003 -0.0421,-0.0104 -0.0644,-0.0137 z m 26.8418,18.88086 c -0.009,0.15907 -0.005,0.31578 -0.0332,0.45898 0.0457,0.0152 0.0933,0.0251 0.13867,0.041 0.0225,-0.0713 0.0444,-0.14093 0.0703,-0.21289 -0.0571,-0.0849 -0.11716,-0.19316 -0.17578,-0.28711 z m 0.10546,0.5 c -4.4e-4,10e-4 -0.002,0.003 -0.002,0.004 -0.0126,-0.005 0.0899,0.0263 0.0547,0.0137 -0.0174,-0.006 -0.0353,-0.0115 -0.0527,-0.0176 z m -0.002,0.004 c 0.0322,0.0133 -0.059,-0.0156 -0.13867,-0.0391 -0.0244,0.12372 -0.0636,0.22698 -0.11133,0.31641 0.0541,0.0419 0.11337,0.0867 0.16797,0.1289 0.008,-0.12983 0.0382,-0.26694 0.082,-0.40625 z m -0.13867,-0.0391 c 4.1e-4,-0.002 0.002,-0.004 0.002,-0.006 -0.29438,-0.098 -0.59264,-0.1879 -0.89062,-0.27539 l 0.002,0.002 c 0.007,0.005 0.0147,0.0122 0.0215,0.0176 0.33206,0.10192 0.64986,0.19819 0.86523,0.26172 z m -0.88867,-0.28125 c -0.004,-0.004 -0.008,-0.012 -0.0117,-0.0156 -0.004,-0.003 -0.01,-7.3e-4 -0.0137,-0.004 0.007,0.006 0.016,0.0137 0.0234,0.0195 z m 3.16992,2.4336 c 0.0368,0.0276 0.0646,0.0504 0.10156,0.0781 0.11467,0.007 0.0953,-0.0221 -0.10156,-0.0781 z m 0.73242,0.084 c -0.0783,-0.007 0.10223,0.23363 0.0234,0.23438 -0.16272,9.9e-4 -0.3194,-0.0476 -0.47461,-0.10352 0.7315,0.54808 1.19842,0.94545 1.99609,1.53125 0.0286,0.0211 0.0515,0.0414 0.0801,0.0625 -0.14044,-0.20928 -0.22389,-0.33052 -0.52539,-0.77734 -0.17932,-0.26577 -0.33535,-0.54467 -0.49609,-0.82227 -0.20126,-0.058 -0.40255,-0.10722 -0.60352,-0.125 z m 6.64844,0.20898 c -0.004,0.005 -0.007,0.009 -0.0117,0.0137 -0.0306,0.0336 -0.0664,0.0581 -0.10156,0.084 0.0396,0.0566 0.052,0.12092 0.084,0.17774 0.0588,-0.019 0.12227,-0.0365 0.17383,-0.0566 -0.0488,-0.0732 -0.0958,-0.14565 -0.14453,-0.21875 z m 4.34766,8.58204 c -0.003,0.005 -0.005,0.0108 -0.008,0.0156 0.0132,0.004 0.0334,0.0125 0.043,0.0156 -0.0108,-0.0116 -0.0245,-0.0197 -0.0351,-0.0312 z m -0.0313,0.0488 c -0.006,0.009 -0.0118,0.0181 -0.0176,0.0274 -0.0896,0.004 -0.15462,0.005 -0.24024,0.01 0.19982,0.16115 0.43751,0.33627 0.625,0.49219 -0.0711,-0.1554 -0.14516,-0.2964 -0.20898,-0.45312 -0.0247,-0.0254 -0.0499,-0.0502 -0.0742,-0.0762 -0.003,5e-4 -0.003,0.002 -0.008,0.002 -0.0265,0.002 -0.0501,-0.003 -0.0762,-0.002 z m 9.24219,6.99805 c 2.3e-4,0.0159 0.006,0.0378 0.006,0.0527 -0.004,0.11512 -0.0893,0.16238 -0.19922,0.17383 0.48341,0.54807 1.02894,1.45901 1.38867,0.35157 0.0294,-0.0906 0.06,-0.1386 0.0899,-0.2168 -0.30283,0.0177 -0.61326,0.0194 -0.99414,-0.14063 -0.11678,-0.0491 -0.19561,-0.14489 -0.29102,-0.2207 z" />
      <path d="M1313 5771 c-7 -19 -34 -26 -83 -22 -61 6 -70 2 -60 -28 7 -24 -6 -47 -39 -69 -28 -18 -51 -46 -51 -62 0 -17 -8 -30 -18 -30 -26 0 -107 -135 -94 -156 5 -9 -10 -16 -34 -15 -26 0 -42 -10 -39 -25 3 -14 -23 -84 -57 -156 -35 -71 -57 -135 -51 -142 17 -17 113 89 113 126 0 16 13 34 29 40 16 6 24 24 18 40 -7 16 1 28 18 28 37 0 118 70 101 87 -7 7 -2 13 10 13 13 0 48 38 77 85 29 47 64 94 76 105 55 49 94 109 102 158 11 56 0 70 -18 23z" id="path14" />
      <path id="path16" style="stroke-width:0.0666667" transform="matrix(15,0,0,-15,0,6000)" d="m 18.705078,26.929688 c -0.725996,0.460072 -0.740232,0.866584 -0.240234,1.109374 0.08235,-0.369385 0.163453,-0.738728 0.240234,-1.109374 z" />
      <path d="M4860 5458 c-36 -10 -39 -15 -13 -16 23 -1 33 -13 27 -29 -6 -15 6 -41 26 -58 33 -29 37 -28 45 17 5 26 2 48 -6 48 -9 0 -19 12 -23 26 -4 18 -22 22 -56 12z" id="path18" />
      <path d="M4960 5333 c0 -15 16 -49 37 -75 20 -27 43 -66 52 -88 11 -28 19 -32 25 -14 6 15 -9 48 -33 73 -24 25 -45 65 -46 88 -4 47 -35 60 -35 16z" id="path20" />
      <path id="path22" style="stroke-width:0.0666667" transform="matrix(15,0,0,-15,0,6000)" d="m 0.78320312,51.746094 c -0.0822831,-0.04876 -0.15620294,0.177561 -0.23046874,0.412109 0.14591479,-0.01775 0.29405101,-0.03517 0.42773437,-0.04883 -0.006193,-0.01633 -0.0411205,-0.09403 -0.046875,-0.109375 -0.05,-0.141667 -0.10117188,-0.22474 -0.15039063,-0.253906 z" />
      <path d="M1441 5156 c-30 -32 -35 -48 -17 -58 33 -21 56 -3 56 43 0 25 10 34 30 26 17 -6 30 -1 30 11 0 37 -56 25 -99 -22z" id="path24" />
      <path d="M1185 5042 c3 -10 -38 -60 -91 -111 -58 -56 -90 -102 -82 -116 8 -14 7 -19 -1 -11 -23 21 -91 -20 -91 -55 0 -16 -11 -29 -24 -29 -17 0 -18 -6 -3 -21 23 -23 92 -4 77 21 -5 8 4 27 20 40 17 14 30 17 30 7 0 -9 9 -4 19 13 11 16 35 30 53 30 19 0 39 13 44 28 6 18 0 23 -18 13 -16 -8 -12 -1 7 14 19 16 28 36 20 45 -8 9 -4 10 10 2 41 -24 68 6 44 50 -16 30 -14 41 10 50 40 16 40 48 1 48 -16 0 -28 -8 -25 -18z" id="path28" />
      <path id="path30" style="stroke-width:0.0666667" transform="matrix(15,0,0,-15,0,6000)" d="M 1.4277344,97.736328 C 0.58000947,99.177976 0,100.78507 0,101.86719 c 0.00896735,0.31385 0.04929546,0.45782 0.07421875,0.67773 0.56094751,-1.57059 0.96986635,-3.185538 1.35351565,-4.808592 z" />
      <path d="M1831 4604 c2 -19 9 -47 16 -64 6 -16 26 -75 44 -130 73 -224 109 -281 259 -417 297 -269 378 -318 634 -385 95 -25 190 -54 211 -65 21 -11 99 -35 174 -52 188 -44 619 -268 714 -371 106 -117 120 -300 22 -300 -46 0 -19 -65 35 -85 24 -10 23 -12 -5 -13 -19 -1 -35 -11 -35 -22 0 -11 -13 -20 -29 -20 -16 0 -43 -20 -60 -44 -17 -25 -31 -37 -31 -28 0 9 -13 6 -29 -8 -35 -28 9 -140 55 -140 13 0 50 -14 82 -30 72 -38 58 -57 143 201 71 218 87 374 47 479 -8 22 -21 58 -30 80 -8 22 -17 45 -19 50 -2 6 -11 29 -18 53 -8 23 -36 52 -63 64 -50 23 -62 61 -28 95 13 13 -15 63 -84 149 -57 71 -101 133 -98 137 3 4 -24 26 -61 49 -56 35 -62 36 -39 6 27 -33 25 -34 -24 -11 -29 13 -48 32 -42 41 6 9 -4 17 -21 17 -17 0 -31 -11 -32 -25 0 -14 -15 0 -34 30 -42 68 -87 83 -182 63 -83 -17 -105 -18 -202 -2 -37 7 -114 2 -170 -9 -141 -29 -270 -21 -342 21 -33 19 -83 41 -112 48 -179 45 -479 337 -579 565 -42 94 -74 128 -67 73z m1569 -844 c32 17 37 15 27 -10 -6 -16 -1 -30 13 -30 13 0 20 -11 15 -25 -5 -14 39 -48 103 -80 108 -55 182 -116 182 -151 0 -19 -124 -25 -140 -6 -5 7 -28 22 -50 35 -22 13 -38 33 -35 46 6 25 -90 70 -133 63 -15 -3 -33 3 -40 13 -15 23 -167 49 -153 26 6 -9 -23 -8 -64 2 -41 10 -109 24 -150 30 -41 7 -75 20 -75 30 0 9 -16 17 -35 17 -30 1 -31 3 -5 21 17 11 79 15 140 9 61 -6 151 -3 200 6 51 10 105 10 125 0 21 -10 51 -9 75 4z" id="path32" />
      <path id="path34" style="stroke-width:0.0666667" transform="matrix(15,0,0,-15,0,6000)" d="m 19.193359,134.95117 c 0.0069,0.0671 0.01238,0.13432 0.01563,0.20508 0.0017,0.0362 -0.0028,0.0715 -0.0039,0.10742 0.138913,0.22267 0.274094,0.44766 0.404297,0.67578 0.07624,-0.10456 0.116201,-0.20405 0.123047,-0.30078 -0.08429,-0.16222 -0.16662,-0.32557 -0.25,-0.48828 -0.08025,-0.0708 -0.179248,-0.13621 -0.289063,-0.19922 z m 2.982422,3.57031 c -0.117114,0.008 -0.234572,0.0173 -0.351562,0.0215 0.105981,0.10402 0.207181,0.21211 0.310547,0.31836 0.01431,-0.11354 0.03016,-0.2284 0.04102,-0.33985 z m -3.816406,3.89844 c -0.03771,0.006 -0.07552,0.0191 -0.113281,0.0274 0.01764,0.0207 0.03526,0.0424 0.05273,0.0625 0.03437,-0.0162 0.07041,-0.0339 0.0957,-0.0508 -0.01272,-0.015 -0.02294,-0.0247 -0.03516,-0.0391 z m 1.099609,1.12891 c 0.354833,0.1865 0.670522,0.20552 0.953125,0.0586 -0.299672,-0.016 -0.593073,-0.0321 -0.953125,-0.0586 z" />
      <path d="M5165 4172 c-7 -11 -1 -23 12 -28 13 -4 17 -17 10 -29 -8 -12 10 -5 39 17 29 21 53 45 53 53 1 21 -100 10 -114 -13z" id="path36" />
      <path d="M5120 3992 c0 -33 11 -52 30 -52 17 0 30 12 30 28 0 15 -13 38 -30 52 -25 21 -30 17 -30 -28z" id="path38" />
      <path d="M1829 3948 c8 -43 22 -86 32 -97 31 -31 49 8 23 50 -13 21 -24 52 -24 68 0 16 -10 35 -23 43 -16 10 -19 -8 -8 -64z" id="path40" />
      <path d="M4904 3955 c-20 -25 -19 -33 7 -43 17 -6 26 -20 20 -30 -6 -11 -3 -25 9 -32 11 -7 20 -19 20 -28 0 -18 -61 -16 -93 4 -12 7 -34 -1 -49 -18 -22 -27 -20 -31 13 -25 21 4 38 -3 39 -16 0 -44 30 -54 30 -10 0 24 9 43 20 43 11 0 20 -13 20 -30 0 -16 9 -30 21 -30 30 0 48 59 24 83 -23 23 -10 97 17 97 9 0 11 14 5 31 -9 22 -19 24 -37 9 -19 -16 -28 -15 -34 1 -5 16 -15 14 -32 -6z" id="path42" />
      <path id="path44" style="stroke-width:0.0666667" transform="matrix(15,0,0,-15,0,6000)" d="m 395.2793,277.38281 c -0.28632,0.0215 -0.60835,0.0357 -0.92969,0.0488 0.21473,0.0693 0.54433,0.18117 0.80273,0.26563 0.0409,-0.11438 0.0843,-0.21341 0.12696,-0.31446 z" />
      <path d="M4822 3672 c-28 -33 -102 -55 -102 -30 0 10 -17 2 -37 -17 -20 -19 -30 -44 -21 -55 24 -32 -8 -140 -42 -140 -16 0 -27 -12 -24 -28 3 -15 -12 -46 -33 -70 -21 -23 -44 -64 -52 -92 -11 -42 -9 -44 9 -15 12 19 42 35 66 35 36 1 38 4 14 20 -26 17 -25 19 4 20 18 0 52 25 74 55 23 30 51 66 62 79 11 13 20 33 20 43 0 11 28 29 62 41 75 26 57 71 -23 55 l-55 -11 49 49 c27 27 58 45 68 38 10 -6 13 3 7 20 -15 38 -17 38 -46 3z" id="path46" />
      <path d="M2144 3591 c8 -9 6 -32 -4 -51 -22 -41 34 -119 75 -105 35 12 31 45 -4 45 -18 0 -25 12 -18 30 6 17 1 30 -12 30 -13 0 -18 8 -12 19 6 10 0 25 -14 33 -14 8 -19 7 -11 -1z" id="path48" />
      <path d="M2158 3365 c-2 -8 -2 -22 0 -30 1 -8 -5 -15 -14 -15 -22 0 -25 -77 -4 -90 23 -14 106 105 90 130 -14 23 -69 27 -72 5z" id="path50" />
      <path d="M2145 3169 c-11 -22 -13 -57 -4 -79 9 -22 17 -72 18 -111 1 -58 9 -71 46 -74 24 -2 35 3 24 11 -12 8 -20 62 -18 120 3 124 -33 196 -66 133z" id="path52" />
      <path d="M2687 2945 c-163 -68 -286 -238 -300 -413 -8 -108 -5 -119 79 -292 68 -139 68 -141 -11 -133 -48 6 -67 19 -76 55 l-11 48 -24 -44 c-51 -93 0 -158 121 -154 44 2 75 -7 75 -20 0 -142 502 -179 755 -56 202 98 140 129 -84 42 -98 -38 -178 -58 -211 -51 -28 6 -64 3 -80 -7 -17 -10 -43 -6 -68 11 -23 16 -60 29 -84 29 -48 0 -138 64 -169 121 -22 41 20 37 79 -9 46 -36 499 -29 522 8 13 21 9 33 -15 42 -29 10 -28 16 12 50 88 74 123 156 127 297 6 192 86 193 134 1 43 -172 9 -241 -155 -309 -102 -42 -77 -68 50 -53 141 16 134 11 197 144 69 145 64 253 -14 344 -31 36 -56 73 -56 82 0 37 -220 184 -348 232 -182 68 -337 81 -445 35z m261 -102 c6 -9 -25 -43 -68 -75 -57 -42 -79 -73 -80 -111 0 -28 -14 -64 -32 -79 -87 -72 12 -363 144 -423 86 -39 59 -72 -44 -53 -215 41 -348 170 -348 340 0 98 61 286 108 334 59 60 294 109 320 67z m175 -109 c78 -27 137 -69 137 -96 0 -28 -42 -20 -130 22 -93 45 -133 49 -165 17 -12 -12 -39 -16 -59 -8 -116 45 93 108 217 65z m28 -184 c18 -94 -16 -134 -109 -126 -58 5 -73 15 -79 52 -19 136 163 208 188 74z m29 -270 c0 -21 -124 -120 -149 -120 -42 0 -150 87 -151 122 0 6 68 11 150 11 83 0 150 -6 150 -13z" id="path54" />
      <path d="M2132 2847 c-16 -41 20 -84 47 -56 11 12 8 33 -8 55 -24 33 -27 33 -39 1z" id="path56" />
      <path id="path58" style="stroke-width:0.0666667" transform="matrix(15,0,0,-15,0,6000)" d="m 314.6582,213.54102 c -0.65156,0.016 -2.13398,0.67578 -4.45898,1.92578 -2.06667,1.13333 -4.86589,4.53294 -6.19922,7.59961 -2.53333,5.66666 -2.26602,9.00065 0.33398,4.33398 0.8,-1.4 3.79909,-5.20065 6.73243,-8.33398 3.45833,-3.79167 4.67773,-5.55209 3.59179,-5.52539 z" />
      <path d="M2110 2680 c7 -11 -1 -73 -18 -137 -27 -108 -29 -260 -2 -302 5 -10 -12 -15 -40 -12 -27 3 -50 -5 -50 -17 0 -12 -10 -8 -22 8 -16 23 -23 24 -31 4 -6 -14 -32 -51 -59 -83 -26 -31 -48 -69 -48 -84 0 -15 -18 -39 -40 -52 -22 -14 -40 -36 -40 -48 0 -13 -22 -53 -50 -89 -27 -36 -50 -74 -50 -84 0 -10 -38 -75 -84 -146 -46 -70 -85 -134 -85 -142 -1 -8 -19 -35 -41 -60 -40 -47 -43 -54 -47 -106 -2 -16 -15 -30 -29 -30 -26 0 -86 -135 -68 -152 26 -26 114 -27 114 -1 0 15 27 61 60 103 33 41 54 83 48 93 -6 9 4 23 21 29 17 7 31 29 31 48 0 20 8 40 18 43 10 4 21 25 25 47 4 22 16 51 27 64 62 76 74 86 88 77 9 -5 17 23 18 63 3 76 23 113 38 71 5 -14 26 -34 46 -45 48 -26 43 22 -9 79 -21 23 -27 41 -14 41 13 0 23 15 23 34 0 55 36 4 46 -66 12 -75 48 -148 75 -148 31 0 22 35 -13 48 -42 16 -26 57 26 65 40 6 77 -39 58 -71 -5 -7 8 -13 29 -13 46 0 51 36 9 71 -16 14 -30 51 -30 82 0 42 -8 54 -30 45 -16 -6 -30 -1 -30 12 0 13 9 18 19 12 31 -20 81 95 58 135 -13 23 -12 34 2 34 12 0 21 23 21 50 0 28 8 50 19 50 25 0 35 77 19 153 -11 52 -8 62 18 52 19 -7 26 -4 17 10 -8 12 -6 58 4 102 10 43 11 91 2 105 -9 15 -7 38 5 52 16 20 11 26 -23 26 -24 0 -38 -9 -31 -20z" id="path60" />
      <path d="M432 2403 c-7 -10 -30 -15 -52 -9 -26 7 -40 1 -40 -17 0 -24 -84 -77 -122 -77 -17 0 -158 -134 -158 -150 0 -14 195 84 265 134 31 22 50 47 44 58 -6 10 7 18 29 18 39 0 75 33 56 53 -5 5 -15 1 -22 -10z" id="path62" />
      <path d="M113 2037 c-62 -55 -108 -110 -101 -121 8 -12 18 -13 26 -1 28 43 145 47 156 5 13 -47 71 -53 106 -10 41 49 64 35 50 -30 -16 -75 6 -75 65 -1 l44 56 -81 56 c-45 31 -97 77 -117 102 l-35 45 -113 -101z" id="path64" />
      <path d="M1450 2057 c-90 -50 -182 -212 -142 -252 14 -14 92 53 92 79 0 10 32 48 70 85 99 93 87 147 -20 88z" id="path66" />
      <path d="M3580 1663 c0 -10 -21 -13 -46 -9 -27 6 -57 -4 -73 -22 -16 -21 -18 -32 -4 -32 12 0 16 -15 9 -33 -10 -25 -6 -29 16 -16 15 10 40 20 55 22 59 9 87 29 76 56 -6 16 0 33 13 38 13 5 8 11 -11 11 -19 1 -35 -6 -35 -15z" id="path68" />
      <path d="M3365 1604 c7 -27 -1 -46 -22 -54 -30 -11 -29 -15 4 -33 44 -25 54 -17 59 53 2 33 -8 60 -24 65 -20 8 -25 -1 -17 -31z" id="path70" />
      <path d="M2240 1435 c0 -8 -12 -15 -27 -15 -15 0 -37 -23 -50 -51 -28 -61 -30 -91 -3 -49 10 17 26 30 35 30 9 0 45 23 80 50 63 49 63 50 14 50 -27 0 -49 -7 -49 -15z" id="path72" />
      <path d="M2631 902 c-13 -21 105 -53 124 -34 6 7 -3 12 -22 12 -18 0 -33 9 -33 20 0 25 -54 26 -69 2z" id="path74" />
      <path d="M2561 799 c22 -22 35 -49 29 -60 -7 -10 -2 -19 11 -19 15 0 19 -18 10 -52 -7 -30 -5 -47 6 -40 27 17 43 -37 43 -145 0 -205 26 -423 50 -423 35 0 91 137 100 243 4 50 12 126 19 169 6 43 6 67 -1 53 -21 -47 -53 -26 -40 26 9 34 2 61 -19 82 -17 18 -27 44 -21 59 6 15 1 32 -9 39 -11 6 -14 21 -7 33 7 11 1 28 -14 38 -45 28 -63 21 -52 -22 6 -22 2 -40 -8 -40 -10 0 -18 13 -18 29 0 16 -17 39 -39 50 -63 34 -84 24 -40 -20z" id="path76" />
      <path d="M1064 674 c3 -24 22 -47 41 -50 52 -10 46 69 -6 82 -33 9 -40 3 -35 -32z" id="path78" />
      <path d="M2839 665 c-1 -8 -6 -35 -10 -59 -6 -33 1 -43 30 -41 30 3 34 11 19 39 -13 24 -12 36 2 36 13 0 17 9 10 20 -14 23 -49 27 -51 5z" id="path80" />
      <path id="path82" style="stroke-width:0.0666667" transform="matrix(15,0,0,-15,0,6000)" d="m 315.19727,356.04102 c -0.40386,-0.0131 -0.77344,0.0314 -1.10743,0.13281 -0.59375,0.18021 -1.07382,0.54375 -1.42382,1.09375 -0.4,0.73333 1.53424,2.46523 4.26757,3.86523 2.8,1.46667 7.79974,5.80104 11.06641,9.73438 3.33333,3.93333 7.19909,8.33216 8.73242,9.79883 2.93334,2.86666 2.93334,7.33398 0,7.33398 -2.2,0 -4.99857,3.2668 -3.86523,4.4668 0.46666,0.46666 1.66601,0.20039 2.66601,-0.59961 0.93334,-0.86667 3.8668,-1.26693 6.4668,-0.9336 3.33333,0.4 4.66602,-9.1e-4 4.66602,-1.26757 0,-1 -0.5323,-1.46641 -1.26563,-1.06641 -1.4,0.86667 -3.3332,-1.59961 -3.5332,-4.59961 -0.0667,-1.13333 -0.20065,-3.33333 -0.33399,-5 -0.13333,-1.73333 -1.06562,-3 -2.26562,-3 -1.13334,0 -1.80039,-0.46641 -1.40039,-1.06641 0.33333,-0.6 -0.5336,-1.93333 -1.9336,-3 -1.4,-1 -2.59961,-2.33385 -2.59961,-2.86718 0,-1.2 -4.93307,-6.40039 -6.0664,-6.40039 -0.46667,0 -2.73477,-1.53204 -5.13477,-3.33204 -2.80312,-2.1125 -5.18551,-3.23617 -6.93554,-3.29296 z" />
      <path d="M4540 541 c0 -21 -9 -44 -20 -51 -30 -19 -24 -50 10 -50 20 0 30 20 30 58 0 32 11 63 25 69 15 6 11 10 -10 11 -22 1 -35 -13 -35 -37z" id="path84" />
      <path d="M4613 507 c-24 -24 -14 -87 14 -87 15 0 43 -18 63 -40 20 -22 29 -40 19 -40 -45 0 31 -41 88 -47 35 -5 82 -24 104 -44 80 -72 96 1 18 83 -129 135 -267 213 -306 175z" id="path86" />
      <path d="M1880 183 c0 -15 28 -31 153 -88 24 -11 53 -14 65 -6 12 7 22 4 22 -8 0 -13 48 -20 122 -18 l123 2 -78 37 c-105 49 -407 109 -407 81z" id="path88" />
      <path d="M461 51 c-13 -16 -57 -32 -98 -37 -40 -4 31 -7 157 -7 127 0 196 3 155 8 -74 7 -98 32 -50 52 14 5 -12 11 -58 11 -49 1 -92 -10 -106 -27z" id="path90" />
      <path d="M3337 18 c-16 -11 29 -17 113 -16 152 1 154 9 7 24 -51 5 -105 1 -120 -8z" id="path92" />
   </g>
</svg>
