<?xml version="1.0" standalone="no"?>
<!DOCTYPE svg PUBLIC "-//W3C//DTD SVG 20010904//EN" "http://www.w3.org/TR/2001/REC-SVG-20010904/DTD/svg10.dtd">
<svg version="1.0" xmlns="http://www.w3.org/2000/svg" width="300.000000pt" height="300.000000pt" viewBox="0 0 300.000000 300.000000" preserveAspectRatio="xMidYMid meet">
  <metadata>
Created by potrace 1.10, written by Peter Selinger 2001-2011
</metadata>
  <g transform="translate(0.000000,300.000000) scale(0.050000,-0.050000)" fill="#414141" stroke="none">
    <path d="M696 5965 c-17 -19 -47 -64 -67 -100 -21 -36 -45 -65 -54 -65 -18 0
-7 -195 13 -214 6 -7 1 -25 -11 -40 -13 -15 -26 -52 -29 -82 -3 -30 -11 -81
-17 -114 -6 -33 -14 -90 -19 -126 -4 -36 -20 -80 -35 -98 -23 -29 -23 -31 3
-16 24 14 26 12 8 -11 -33 -43 -46 -140 -26 -193 12 -32 10 -46 -7 -46 -19 -1
-19 -4 -2 -15 32 -21 9 -126 -31 -140 -51 -18 -104 -81 -81 -96 11 -7 15 -29
9 -49 -26 -81 -27 -118 -4 -109 15 6 24 -10 24 -39 0 -27 -8 -47 -18 -45 -44
8 -29 -53 26 -108 52 -53 60 -74 56 -151 -4 -66 4 -98 31 -122 19 -18 31 -47
25 -65 -6 -20 24 -68 80 -128 50 -53 85 -105 79 -115 -7 -11 -2 -33 12 -49 13
-16 18 -29 10 -29 -8 0 0 -14 18 -32 17 -17 25 -41 18 -53 -9 -14 2 -17 30
-10 33 9 43 2 43 -29 0 -25 21 -47 59 -62 50 -19 89 -73 84 -117 -1 -7 14 -11
33 -8 60 9 185 -77 139 -96 -16 -6 -13 -10 8 -11 42 -2 69 -102 33 -125 -14
-9 -18 -17 -9 -17 10 0 6 -15 -9 -33 -31 -36 -36 -91 -12 -109 10 -7 3 -26
-14 -43 -16 -17 -24 -36 -17 -44 8 -7 -1 -8 -18 -1 -21 8 -35 -1 -42 -28 -9
-34 0 -41 62 -46 l73 -6 -110 -82 c-86 -64 -419 -276 -700 -445 -22 -14 1 -27
90 -52 66 -18 158 -47 204 -63 75 -27 94 -27 188 1 196 58 304 37 257 -51 -23
-42 -39 -43 -154 -7 -91 28 -41 -22 60 -61 103 -39 132 -77 107 -141 -12 -33
-186 24 -316 105 -41 25 -113 59 -160 75 l-86 29 68 -59 c38 -32 129 -89 203
-128 183 -97 202 -123 98 -137 -89 -11 -158 18 -305 132 -119 92 -180 10 -123
-168 12 -40 39 -50 57 -21 6 10 48 11 92 3 44 -8 86 -7 92 3 14 24 103 22 118
-3 16 -26 164 -26 180 0 29 47 54 16 43 -55 -28 -185 -39 -224 -76 -263 -21
-23 -31 -42 -23 -43 9 0 -1 -10 -22 -22 -36 -21 -36 -24 10 -59 l48 -37 -65
-1 c-56 0 -65 -7 -65 -50 0 -143 -90 44 -110 230 -15 128 -65 280 -93 280 -11
0 -13 -11 -5 -23 10 -16 4 -20 -19 -11 -26 10 -33 1 -33 -45 0 -32 -9 -61 -19
-64 -11 -4 12 -70 50 -147 38 -77 69 -151 69 -165 0 -14 7 -25 17 -25 45 0 70
-100 32 -128 -21 -16 -45 -25 -52 -20 -7 4 -9 -10 -3 -32 6 -22 21 -34 33 -28
13 6 6 -3 -15 -20 -36 -29 -36 -32 1 -108 35 -70 36 -90 14 -216 -35 -201 -32
-280 13 -369 40 -77 101 -117 68 -44 -29 66 -25 312 7 374 l30 58 29 -68 c16
-38 26 -106 22 -152 -3 -46 1 -79 10 -73 9 5 27 0 40 -10 13 -11 56 -29 94
-39 61 -16 69 -26 66 -76 -6 -70 -90 -154 -138 -135 -24 9 -30 5 -20 -11 18
-29 102 -30 155 -1 61 33 120 4 68 -33 -36 -27 -34 -29 30 -29 38 0 59 7 47
15 -15 10 -17 65 -6 175 21 213 3 287 -56 228 -67 -67 -320 175 -298 285 8 43
2 58 -29 67 -68 22 -37 110 84 237 30 32 65 86 79 120 14 35 34 69 44 75 10 7
30 71 45 143 15 72 50 180 78 242 44 96 49 123 32 197 -93 415 -124 769 -73
845 43 67 62 64 93 -11 14 -35 54 -80 87 -102 46 -29 50 -36 17 -26 -83 24
-55 -61 42 -128 99 -68 269 -75 360 -16 140 92 243 407 194 591 -53 195 -462
412 -592 314 -64 -48 -79 -40 -336 184 -232 202 -314 309 -313 408 0 21 139
80 159 68 10 -7 24 -3 31 9 7 11 37 20 67 20 31 0 72 12 93 27 20 15 52 24 70
19 19 -5 47 4 63 20 26 26 104 61 143 63 56 3 288 240 304 309 30 140 -63 182
-166 74 -46 -49 -93 -75 -165 -90 -55 -12 -126 -41 -157 -63 -55 -42 -163 -77
-265 -87 -30 -3 -77 -21 -106 -39 -46 -30 -53 -31 -63 -4 -9 22 -35 29 -91 24
-44 -3 -84 2 -89 11 -6 9 -28 16 -50 16 -35 0 -38 9 -28 75 27 164 37 199 102
351 38 87 68 191 68 231 0 82 92 826 112 903 43 167 25 256 -36 185z m0 -1894
c6 -89 -44 -109 -90 -35 -20 30 -44 60 -55 68 -25 18 67 53 109 42 20 -5 34
-34 36 -75z m829 -911 c52 0 43 -42 -20 -94 -50 -42 -52 -48 -20 -67 47 -28
44 -70 -6 -105 -29 -21 -43 -57 -49 -121 -12 -150 111 -230 315 -206 96 11
101 10 69 -22 -89 -88 -405 -3 -527 142 -104 124 29 520 163 484 22 -6 56 -11
75 -11z m145 -120 c0 -37 -67 -51 -97 -21 -17 17 -15 28 7 42 41 26 90 15 90
-21z m178 -112 c35 -90 -6 -143 -108 -140 -61 2 -75 56 -31 123 36 56 120 66
139 17z m-148 -239 c39 -3 77 -7 85 -8 8 0 15 -9 15 -19 0 -27 -70 -39 -107
-18 -21 12 -33 11 -33 -3 0 -32 -63 -25 -103 12 -54 49 -46 74 18 57 30 -8 87
-17 125 -21z m-86 -236 c-11 -31 -170 -26 -200 7 -13 14 -15 21 -3 14 11 -6
32 -5 45 3 36 23 167 2 158 -24z m-710 -95 c26 -14 36 -15 28 -1 -7 11 -5 25
4 30 28 18 27 -139 -1 -163 -43 -35 -230 -44 -257 -12 -18 22 -17 28 5 29 18
0 14 11 -13 32 -30 24 -31 29 -7 21 21 -7 39 2 48 22 12 29 17 26 30 -16 l15
-50 2 55 c1 41 12 55 42 55 24 0 41 14 42 35 1 21 5 25 11 10 6 -14 29 -35 51
-47z" />
    <path d="M1030 5939 c-8 -34 -26 -67 -42 -72 -15 -6 -28 -21 -28 -32 0 -12
-21 -49 -46 -83 -67 -89 -79 -112 -58 -112 10 0 40 31 66 70 27 38 62 70 78
70 27 1 27 3 0 20 -20 13 -22 19 -5 20 14 0 25 11 25 24 0 13 34 54 75 90 l75
65 -63 1 c-55 0 -66 -8 -77 -61z" />
    <path d="M1404 5965 c4 -19 -7 -48 -24 -65 -17 -16 -22 -23 -11 -15 32 25 51
17 51 -20 1 -28 4 -30 18 -7 10 16 15 38 10 50 -5 12 15 23 44 25 29 2 60 14
68 28 9 14 38 20 68 15 29 -6 52 -3 52 7 0 9 -64 17 -141 17 -125 0 -141 -4
-135 -35z" />
    <path d="M5841 5961 c-25 -46 -28 -155 -4 -169 22 -14 143 136 143 177 0 47
-113 41 -139 -8z" />
    <path d="M5948 5798 c-41 -51 -69 -158 -42 -158 17 -1 16 -6 -2 -17 -25 -16
-87 -259 -114 -447 -103 -716 -594 -1689 -975 -1929 -154 -98 -299 -249 -286
-301 9 -36 -3 -54 -65 -94 -92 -58 -177 -155 -221 -251 -17 -39 -47 -89 -67
-112 -35 -41 -32 -189 5 -189 35 0 200 231 191 267 -6 25 20 67 77 125 47 48
102 120 120 159 35 73 189 189 252 189 72 0 121 -97 71 -138 -16 -13 -43 -53
-62 -88 -57 -110 -78 -142 -130 -196 -27 -29 -108 -113 -179 -188 -95 -99
-168 -153 -273 -203 -193 -92 -386 -338 -468 -597 -14 -44 -41 -107 -60 -140
-20 -33 -74 -150 -120 -260 -105 -248 -335 -703 -429 -849 -39 -60 -71 -118
-71 -129 0 -10 -14 -33 -31 -50 -16 -18 -50 -63 -75 -102 -93 -143 -434 -71
-434 92 0 44 -194 200 -283 227 -56 18 -171 26 -326 23 -370 -6 -434 37 -216
145 74 37 176 88 225 113 50 26 115 60 146 75 31 16 93 31 137 35 45 3 88 14
94 25 7 11 41 34 76 52 50 26 67 51 87 132 24 99 47 125 67 76 5 -14 11 -4 11
21 1 30 -6 41 -21 32 -16 -10 -19 3 -9 44 7 32 15 72 16 88 1 17 11 36 21 42
27 18 -27 96 -58 84 -15 -6 -46 -74 -69 -153 -58 -198 -170 -300 -386 -355
-84 -21 -277 -135 -467 -277 -36 -27 -65 -65 -65 -86 0 -21 -9 -32 -20 -25
-12 7 -52 2 -90 -10 -93 -31 -68 -86 42 -93 41 -3 116 -23 167 -44 82 -35 109
-37 281 -18 265 30 496 -42 568 -175 12 -22 27 -44 32 -50 6 -5 27 -30 48 -55
l38 -45 -453 0 -454 0 29 45 c44 67 2 127 -150 216 -154 91 -165 87 -148 -62
17 -148 2 -194 -66 -205 -30 -4 366 -9 880 -11 l934 -3 -49 53 c-74 79 -57
114 31 67 31 -17 44 -10 73 40 20 33 44 60 53 60 10 0 13 13 7 29 -6 17 -3 35
8 42 10 6 19 3 19 -8 0 -10 13 -24 29 -30 22 -8 27 6 23 63 -6 84 42 204 82
204 26 0 57 95 53 165 -1 19 11 35 26 35 16 0 34 14 40 31 7 17 23 27 36 22
42 -16 74 59 48 115 -33 72 -8 128 38 87 30 -26 82 -40 220 -58 14 -2 25 -12
25 -22 0 -9 7 -13 16 -8 27 17 66 -19 69 -64 4 -46 21 -51 85 -23 38 16 38 17
-5 19 -25 0 -45 9 -45 18 0 10 25 14 55 9 l55 -9 -63 42 c-58 39 -164 231
-140 254 5 6 -18 36 -52 69 -67 64 -90 64 -57 1 45 -83 13 -223 -49 -223 -24
0 -26 8 -10 39 22 39 7 93 -44 167 -21 30 -19 41 8 61 28 21 29 29 5 62 -33
45 -37 163 -7 182 12 7 65 -29 119 -79 131 -122 194 -119 184 10 -4 45 2 51
44 43 82 -15 121 19 78 68 -62 69 -104 73 -118 11 -8 -30 -24 -67 -38 -84 -13
-16 -30 -46 -36 -65 -7 -19 -22 -35 -33 -35 -33 0 -24 75 21 180 59 137 47
185 -30 113 -55 -51 -106 -59 -56 -9 13 13 24 44 24 69 0 59 25 72 71 38 32
-23 41 -22 61 5 23 32 148 -67 148 -116 0 -22 63 -47 103 -42 23 3 31 -7 25
-32 -7 -27 22 -56 115 -113 l125 -78 65 35 c36 19 85 61 109 93 51 66 95 72
160 20 l46 -38 -39 -127 c-21 -71 -36 -131 -33 -134 7 -7 -108 -104 -124 -104
-26 0 -10 101 26 164 51 90 68 170 39 188 -25 15 -117 -84 -117 -126 0 -45
-70 -66 -147 -44 -139 38 -142 -11 -7 -96 190 -120 278 -154 304 -119 14 18
31 33 39 33 34 0 513 -389 644 -523 233 -241 347 -369 347 -394 0 -13 10 -23
21 -23 12 0 17 -16 11 -35 -6 -19 -3 -48 7 -64 12 -19 11 -39 -3 -55 -16 -20
-11 -26 22 -26 38 0 42 11 42 128 l0 128 -195 185 c-195 185 -439 395 -643
554 -60 47 -96 85 -80 85 15 -1 51 -18 78 -40 28 -22 58 -39 67 -40 9 0 58
-36 108 -80 103 -91 130 -99 121 -35 -3 25 -18 45 -33 45 -14 0 -39 17 -54 39
-16 21 -34 32 -41 25 -7 -7 -43 11 -80 39 -38 29 -68 44 -68 35 0 -32 -41 26
-50 71 -12 61 -28 76 -48 44 -13 -21 -19 -19 -29 6 -7 19 -4 28 7 21 12 -8 20
23 20 78 0 49 7 94 16 100 19 11 6 152 -13 152 -7 0 -43 27 -81 60 -46 41 -82
57 -115 51 -27 -5 -43 0 -36 10 21 35 -32 19 -76 -21 -24 -23 -55 -37 -69 -31
-23 9 -33 -15 -32 -80 0 -18 -33 -21 -130 -12 -15 2 -22 10 -17 19 6 9 -8 17
-30 19 -47 3 -193 124 -195 161 -1 15 -10 21 -20 15 -10 -6 -23 3 -29 19 -7
17 -23 30 -37 30 -14 1 -47 23 -73 50 -48 50 -47 110 2 110 14 0 34 20 45 45
12 25 36 44 57 42 22 -2 32 7 26 23 -7 17 12 35 48 47 33 12 59 15 59 9 0 -7
21 13 48 43 34 40 50 48 58 28 8 -19 11 -16 12 8 1 19 11 35 21 35 28 0 121
91 121 117 0 13 18 23 40 23 22 0 40 13 40 30 0 17 7 31 15 31 8 1 35 6 59 10
24 5 56 -3 70 -18 15 -14 37 -23 49 -19 13 5 29 -10 37 -33 7 -23 25 -41 39
-41 15 0 31 -12 37 -27 6 -16 54 -49 107 -75 91 -44 94 -47 47 -60 -43 -12
-44 -14 -8 -16 23 -1 58 -20 78 -42 20 -22 41 -36 46 -30 6 5 22 0 37 -13 15
-12 27 -16 27 -8 0 7 23 -12 52 -43 28 -31 45 -43 37 -28 -10 19 -7 23 8 14
13 -8 23 -27 23 -43 0 -15 11 -24 25 -18 14 5 40 -17 58 -49 22 -40 52 -61 90
-65 33 -4 55 -18 52 -32 -3 -14 22 -42 55 -62 33 -20 54 -42 47 -49 -7 -7 6
-9 29 -5 43 9 74 -36 51 -74 -7 -12 0 -31 16 -43 17 -12 35 -43 42 -68 9 -37
6 -42 -15 -24 -21 17 -25 8 -23 -44 2 -36 12 -73 23 -81 12 -8 8 -15 -10 -15
-27 -1 -27 -3 0 -20 24 -15 24 -19 3 -20 -22 0 -23 -6 -4 -29 13 -16 18 -48
11 -70 -8 -25 -4 -41 10 -41 12 0 17 -9 10 -20 -7 -12 -21 -16 -30 -10 -10 6
-10 -14 -2 -45 9 -30 12 -67 7 -81 -5 -14 1 -37 13 -52 17 -20 15 -33 -7 -51
-20 -16 -24 -37 -14 -58 22 -46 26 -148 6 -179 -30 -47 -154 -1 -148 54 4 36
-2 42 -35 32 -41 -13 -150 53 -127 77 12 12 -77 53 -114 53 -57 0 7 -68 199
-209 118 -87 235 -186 259 -219 l43 -61 0 659 0 660 -195 149 c-107 82 -372
282 -588 445 -374 282 -463 365 -382 354 47 -6 147 43 133 66 -6 10 -1 30 12
46 13 16 18 37 12 47 -7 10 2 24 19 31 30 11 33 95 4 123 -48 49 519 601 894
871 86 61 91 70 89 156 0 51 -6 81 -11 67 -6 -14 -111 -108 -234 -209 -244
-202 -311 -261 -585 -519 -250 -236 -403 -287 -183 -62 221 227 318 336 346
389 16 29 45 65 65 80 32 23 67 81 72 119 1 8 22 36 45 64 51 58 147 225 147
255 0 11 18 39 41 64 22 24 31 47 20 50 -12 4 -9 19 8 36 16 16 24 43 18 59
-7 17 2 46 18 65 32 36 58 125 59 199 0 25 9 45 20 45 11 0 15 13 9 29 -6 17
-3 35 7 41 10 6 13 26 6 44 -9 22 -5 28 11 18 12 -8 23 -4 23 8 0 12 10 16 21
9 12 -7 16 -27 10 -44 -6 -16 -1 -42 11 -58 17 -20 17 -27 -1 -27 -13 0 -18
-9 -11 -20 7 -11 2 -20 -11 -20 -14 0 -18 -13 -8 -35 8 -19 14 -51 13 -70 -1
-19 7 -39 17 -46 12 -7 10 -28 -3 -54 -19 -34 -17 -47 10 -66 29 -21 29 -29 6
-52 -17 -17 -22 -43 -13 -67 8 -22 5 -52 -6 -66 -15 -18 -10 -33 17 -53 37
-27 38 -16 43 389 10 732 -2 1290 -27 1258z" />
    <path d="M1313 5771 c-7 -19 -34 -26 -83 -22 -61 6 -70 2 -60 -28 7 -24 -6
-47 -39 -69 -28 -18 -51 -46 -51 -62 0 -17 -8 -30 -18 -30 -26 0 -107 -135
-94 -156 5 -9 -10 -16 -34 -15 -26 0 -42 -10 -39 -25 3 -14 -23 -84 -57 -156
-35 -71 -57 -135 -51 -142 17 -17 113 89 113 126 0 16 13 34 29 40 16 6 24 24
18 40 -7 16 1 28 18 28 37 0 118 70 101 87 -7 7 -2 13 10 13 13 0 48 38 77 85
29 47 64 94 76 105 55 49 94 109 102 158 11 56 0 70 -18 23z" />
    <path d="M290 5601 c-38 -17 -13 -32 38 -22 10 2 7 -11 -7 -28 -23 -27 -22
-30 6 -19 18 7 33 19 33 26 0 8 34 10 75 6 56 -6 69 -3 53 15 -29 31 -149 44
-198 22z" />
    <path d="M4860 5458 c-36 -10 -39 -15 -13 -16 23 -1 33 -13 27 -29 -6 -15 6
-41 26 -58 33 -29 37 -28 45 17 5 26 2 48 -6 48 -9 0 -19 12 -23 26 -4 18 -22
22 -56 12z" />
    <path d="M4960 5333 c0 -15 16 -49 37 -75 20 -27 43 -66 52 -88 11 -28 19 -32
25 -14 6 15 -9 48 -33 73 -24 25 -45 65 -46 88 -4 47 -35 60 -35 16z" />
    <path d="M2 5135 c-1 -64 7 -115 18 -115 11 0 20 -16 20 -35 1 -28 4 -29 18
-7 14 22 20 20 28 -10 8 -32 10 -30 12 8 1 25 -15 84 -35 130 -21 46 -43 98
-49 114 -6 17 -12 -22 -12 -85z" />
    <path d="M1441 5156 c-30 -32 -35 -48 -17 -58 33 -21 56 -3 56 43 0 25 10 34
30 26 17 -6 30 -1 30 11 0 37 -56 25 -99 -22z" />
    <path d="M214 5101 c-11 -42 33 -119 51 -89 15 24 -5 128 -25 128 -8 0 -20
-18 -26 -39z" />
    <path d="M1185 5042 c3 -10 -38 -60 -91 -111 -58 -56 -90 -102 -82 -116 8 -14
7 -19 -1 -11 -23 21 -91 -20 -91 -55 0 -16 -11 -29 -24 -29 -17 0 -18 -6 -3
-21 23 -23 92 -4 77 21 -5 8 4 27 20 40 17 14 30 17 30 7 0 -9 9 -4 19 13 11
16 35 30 53 30 19 0 39 13 44 28 6 18 0 23 -18 13 -16 -8 -12 -1 7 14 19 16
28 36 20 45 -8 9 -4 10 10 2 41 -24 68 6 44 50 -16 30 -14 41 10 50 40 16 40
48 1 48 -16 0 -28 -8 -25 -18z" />
    <path d="M154 4762 c14 -53 -53 -154 -79 -118 -14 19 -16 18 -8 -7 6 -19 -7
-54 -28 -78 -22 -25 -39 -64 -39 -87 1 -35 7 -32 42 23 23 36 52 66 65 68 13
2 32 5 43 8 11 2 32 5 46 7 36 3 1 222 -35 222 -10 0 -13 -17 -7 -38z" />
    <path d="M1831 4604 c2 -19 9 -47 16 -64 6 -16 26 -75 44 -130 73 -224 109
-281 259 -417 297 -269 378 -318 634 -385 95 -25 190 -54 211 -65 21 -11 99
-35 174 -52 188 -44 619 -268 714 -371 106 -117 120 -300 22 -300 -46 0 -19
-65 35 -85 24 -10 23 -12 -5 -13 -19 -1 -35 -11 -35 -22 0 -11 -13 -20 -29
-20 -16 0 -43 -20 -60 -44 -17 -25 -31 -37 -31 -28 0 9 -13 6 -29 -8 -35 -28
9 -140 55 -140 13 0 50 -14 82 -30 72 -38 58 -57 143 201 71 218 87 374 47
479 -8 22 -21 58 -30 80 -8 22 -17 45 -19 50 -2 6 -11 29 -18 53 -8 23 -36 52
-63 64 -50 23 -62 61 -28 95 13 13 -15 63 -84 149 -57 71 -101 133 -98 137 3
4 -24 26 -61 49 -56 35 -62 36 -39 6 27 -33 25 -34 -24 -11 -29 13 -48 32 -42
41 6 9 -4 17 -21 17 -17 0 -31 -11 -32 -25 0 -14 -15 0 -34 30 -42 68 -87 83
-182 63 -83 -17 -105 -18 -202 -2 -37 7 -114 2 -170 -9 -141 -29 -270 -21
-342 21 -33 19 -83 41 -112 48 -179 45 -479 337 -579 565 -42 94 -74 128 -67
73z m1569 -844 c32 17 37 15 27 -10 -6 -16 -1 -30 13 -30 13 0 20 -11 15 -25
-5 -14 39 -48 103 -80 108 -55 182 -116 182 -151 0 -19 -124 -25 -140 -6 -5 7
-28 22 -50 35 -22 13 -38 33 -35 46 6 25 -90 70 -133 63 -15 -3 -33 3 -40 13
-15 23 -167 49 -153 26 6 -9 -23 -8 -64 2 -41 10 -109 24 -150 30 -41 7 -75
20 -75 30 0 9 -16 17 -35 17 -30 1 -31 3 -5 21 17 11 79 15 140 9 61 -6 151
-3 200 6 51 10 105 10 125 0 21 -10 51 -9 75 4z" />
    <path d="M40 4232 c0 -16 30 -68 66 -115 36 -48 90 -130 120 -182 63 -108 84
-117 103 -43 19 76 -4 124 -77 158 -35 17 -90 71 -121 121 -57 90 -91 113 -91
61z" />
    <path d="M5165 4172 c-7 -11 -1 -23 12 -28 13 -4 17 -17 10 -29 -8 -12 10 -5
39 17 29 21 53 45 53 53 1 21 -100 10 -114 -13z" />
    <path d="M5120 3992 c0 -33 11 -52 30 -52 17 0 30 12 30 28 0 15 -13 38 -30
52 -25 21 -30 17 -30 -28z" />
    <path d="M1829 3948 c8 -43 22 -86 32 -97 31 -31 49 8 23 50 -13 21 -24 52
-24 68 0 16 -10 35 -23 43 -16 10 -19 -8 -8 -64z" />
    <path d="M4904 3955 c-20 -25 -19 -33 7 -43 17 -6 26 -20 20 -30 -6 -11 -3
-25 9 -32 11 -7 20 -19 20 -28 0 -18 -61 -16 -93 4 -12 7 -34 -1 -49 -18 -22
-27 -20 -31 13 -25 21 4 38 -3 39 -16 0 -44 30 -54 30 -10 0 24 9 43 20 43 11
0 20 -13 20 -30 0 -16 9 -30 21 -30 30 0 48 59 24 83 -23 23 -10 97 17 97 9 0
11 14 5 31 -9 22 -19 24 -37 9 -19 -16 -28 -15 -34 1 -5 16 -15 14 -32 -6z" />
    <path d="M5951 3721 c-10 -17 -17 -56 -14 -88 4 -61 -30 -120 -59 -102 -30 19
-20 -24 12 -51 16 -13 25 -32 19 -41 -5 -9 -1 -21 9 -28 17 -10 -3 -142 -25
-165 -6 -6 2 -24 18 -40 30 -30 33 -141 4 -159 -8 -5 -11 -17 -6 -26 5 -8 2
-44 -8 -79 -10 -34 -11 -58 -1 -52 9 6 23 2 30 -10 7 -11 1 -20 -14 -20 -20
-1 -20 -5 2 -18 16 -10 22 -32 15 -51 -7 -19 -23 -27 -35 -20 -12 8 -8 -8 10
-35 18 -27 28 -53 24 -58 -5 -4 -11 -53 -14 -108 -3 -55 -15 -107 -27 -115
-14 -9 -13 -14 4 -15 26 0 35 -64 12 -86 -7 -8 -24 -5 -37 6 -16 13 -23 10
-23 -9 0 -16 7 -25 15 -20 22 14 40 -23 50 -105 6 -46 0 -79 -16 -89 -21 -13
-20 -16 1 -17 22 0 23 -6 4 -28 -16 -20 -16 -33 -2 -41 35 -22 24 -51 -20 -51
-23 0 -36 -9 -29 -20 7 -11 1 -20 -14 -21 -17 0 -14 -9 9 -27 19 -14 35 -35
35 -46 0 -25 77 -96 90 -82 6 5 8 445 5 978 -3 618 -12 957 -24 939z" />
    <path d="M4822 3672 c-28 -33 -102 -55 -102 -30 0 10 -17 2 -37 -17 -20 -19
-30 -44 -21 -55 24 -32 -8 -140 -42 -140 -16 0 -27 -12 -24 -28 3 -15 -12 -46
-33 -70 -21 -23 -44 -64 -52 -92 -11 -42 -9 -44 9 -15 12 19 42 35 66 35 36 1
38 4 14 20 -26 17 -25 19 4 20 18 0 52 25 74 55 23 30 51 66 62 79 11 13 20
33 20 43 0 11 28 29 62 41 75 26 57 71 -23 55 l-55 -11 49 49 c27 27 58 45 68
38 10 -6 13 3 7 20 -15 38 -17 38 -46 3z" />
    <path d="M2144 3591 c8 -9 6 -32 -4 -51 -22 -41 34 -119 75 -105 35 12 31 45
-4 45 -18 0 -25 12 -18 30 6 17 1 30 -12 30 -13 0 -18 8 -12 19 6 10 0 25 -14
33 -14 8 -19 7 -11 -1z" />
    <path d="M2158 3365 c-2 -8 -2 -22 0 -30 1 -8 -5 -15 -14 -15 -22 0 -25 -77
-4 -90 23 -14 106 105 90 130 -14 23 -69 27 -72 5z" />
    <path d="M2145 3169 c-11 -22 -13 -57 -4 -79 9 -22 17 -72 18 -111 1 -58 9
-71 46 -74 24 -2 35 3 24 11 -12 8 -20 62 -18 120 3 124 -33 196 -66 133z" />
    <path d="M2687 2945 c-163 -68 -286 -238 -300 -413 -8 -108 -5 -119 79 -292
68 -139 68 -141 -11 -133 -48 6 -67 19 -76 55 l-11 48 -24 -44 c-51 -93 0
-158 121 -154 44 2 75 -7 75 -20 0 -142 502 -179 755 -56 202 98 140 129 -84
42 -98 -38 -178 -58 -211 -51 -28 6 -64 3 -80 -7 -17 -10 -43 -6 -68 11 -23
16 -60 29 -84 29 -48 0 -138 64 -169 121 -22 41 20 37 79 -9 46 -36 499 -29
522 8 13 21 9 33 -15 42 -29 10 -28 16 12 50 88 74 123 156 127 297 6 192 86
193 134 1 43 -172 9 -241 -155 -309 -102 -42 -77 -68 50 -53 141 16 134 11
197 144 69 145 64 253 -14 344 -31 36 -56 73 -56 82 0 37 -220 184 -348 232
-182 68 -337 81 -445 35z m261 -102 c6 -9 -25 -43 -68 -75 -57 -42 -79 -73
-80 -111 0 -28 -14 -64 -32 -79 -87 -72 12 -363 144 -423 86 -39 59 -72 -44
-53 -215 41 -348 170 -348 340 0 98 61 286 108 334 59 60 294 109 320 67z
m175 -109 c78 -27 137 -69 137 -96 0 -28 -42 -20 -130 22 -93 45 -133 49 -165
17 -12 -12 -39 -16 -59 -8 -116 45 93 108 217 65z m28 -184 c18 -94 -16 -134
-109 -126 -58 5 -73 15 -79 52 -19 136 163 208 188 74z m29 -270 c0 -21 -124
-120 -149 -120 -42 0 -150 87 -151 122 0 6 68 11 150 11 83 0 150 -6 150 -13z" />
    <path d="M2132 2847 c-16 -41 20 -84 47 -56 11 12 8 33 -8 55 -24 33 -27 33
-39 1z" />
    <path d="M4653 2768 c-31 -17 -73 -68 -93 -114 -38 -85 -34 -135 5 -65 12 21
57 78 101 125 83 91 80 104 -13 54z" />
    <path d="M2110 2680 c7 -11 -1 -73 -18 -137 -27 -108 -29 -260 -2 -302 5 -10
-12 -15 -40 -12 -27 3 -50 -5 -50 -17 0 -12 -10 -8 -22 8 -16 23 -23 24 -31 4
-6 -14 -32 -51 -59 -83 -26 -31 -48 -69 -48 -84 0 -15 -18 -39 -40 -52 -22
-14 -40 -36 -40 -48 0 -13 -22 -53 -50 -89 -27 -36 -50 -74 -50 -84 0 -10 -38
-75 -84 -146 -46 -70 -85 -134 -85 -142 -1 -8 -19 -35 -41 -60 -40 -47 -43
-54 -47 -106 -2 -16 -15 -30 -29 -30 -26 0 -86 -135 -68 -152 26 -26 114 -27
114 -1 0 15 27 61 60 103 33 41 54 83 48 93 -6 9 4 23 21 29 17 7 31 29 31 48
0 20 8 40 18 43 10 4 21 25 25 47 4 22 16 51 27 64 62 76 74 86 88 77 9 -5 17
23 18 63 3 76 23 113 38 71 5 -14 26 -34 46 -45 48 -26 43 22 -9 79 -21 23
-27 41 -14 41 13 0 23 15 23 34 0 55 36 4 46 -66 12 -75 48 -148 75 -148 31 0
22 35 -13 48 -42 16 -26 57 26 65 40 6 77 -39 58 -71 -5 -7 8 -13 29 -13 46 0
51 36 9 71 -16 14 -30 51 -30 82 0 42 -8 54 -30 45 -16 -6 -30 -1 -30 12 0 13
9 18 19 12 31 -20 81 95 58 135 -13 23 -12 34 2 34 12 0 21 23 21 50 0 28 8
50 19 50 25 0 35 77 19 153 -11 52 -8 62 18 52 19 -7 26 -4 17 10 -8 12 -6 58
4 102 10 43 11 91 2 105 -9 15 -7 38 5 52 16 20 11 26 -23 26 -24 0 -38 -9
-31 -20z" />
    <path d="M432 2403 c-7 -10 -30 -15 -52 -9 -26 7 -40 1 -40 -17 0 -24 -84 -77
-122 -77 -17 0 -158 -134 -158 -150 0 -14 195 84 265 134 31 22 50 47 44 58
-6 10 7 18 29 18 39 0 75 33 56 53 -5 5 -15 1 -22 -10z" />
    <path d="M113 2037 c-62 -55 -108 -110 -101 -121 8 -12 18 -13 26 -1 28 43
145 47 156 5 13 -47 71 -53 106 -10 41 49 64 35 50 -30 -16 -75 6 -75 65 -1
l44 56 -81 56 c-45 31 -97 77 -117 102 l-35 45 -113 -101z" />
    <path d="M1450 2057 c-90 -50 -182 -212 -142 -252 14 -14 92 53 92 79 0 10 32
48 70 85 99 93 87 147 -20 88z" />
    <path d="M3580 1663 c0 -10 -21 -13 -46 -9 -27 6 -57 -4 -73 -22 -16 -21 -18
-32 -4 -32 12 0 16 -15 9 -33 -10 -25 -6 -29 16 -16 15 10 40 20 55 22 59 9
87 29 76 56 -6 16 0 33 13 38 13 5 8 11 -11 11 -19 1 -35 -6 -35 -15z" />
    <path d="M3365 1604 c7 -27 -1 -46 -22 -54 -30 -11 -29 -15 4 -33 44 -25 54
-17 59 53 2 33 -8 60 -24 65 -20 8 -25 -1 -17 -31z" />
    <path d="M2240 1435 c0 -8 -12 -15 -27 -15 -15 0 -37 -23 -50 -51 -28 -61 -30
-91 -3 -49 10 17 26 30 35 30 9 0 45 23 80 50 63 49 63 50 14 50 -27 0 -49 -7
-49 -15z" />
    <path d="M2631 902 c-13 -21 105 -53 124 -34 6 7 -3 12 -22 12 -18 0 -33 9
-33 20 0 25 -54 26 -69 2z" />
    <path d="M2561 799 c22 -22 35 -49 29 -60 -7 -10 -2 -19 11 -19 15 0 19 -18
10 -52 -7 -30 -5 -47 6 -40 27 17 43 -37 43 -145 0 -205 26 -423 50 -423 35 0
91 137 100 243 4 50 12 126 19 169 6 43 6 67 -1 53 -21 -47 -53 -26 -40 26 9
34 2 61 -19 82 -17 18 -27 44 -21 59 6 15 1 32 -9 39 -11 6 -14 21 -7 33 7 11
1 28 -14 38 -45 28 -63 21 -52 -22 6 -22 2 -40 -8 -40 -10 0 -18 13 -18 29 0
16 -17 39 -39 50 -63 34 -84 24 -40 -20z" />
    <path d="M1064 674 c3 -24 22 -47 41 -50 52 -10 46 69 -6 82 -33 9 -40 3 -35
-32z" />
    <path d="M2839 665 c-1 -8 -6 -35 -10 -59 -6 -33 1 -43 30 -41 30 3 34 11 19
39 -13 24 -12 36 2 36 13 0 17 9 10 20 -14 23 -49 27 -51 5z" />
    <path d="M4690 641 c-6 -11 23 -37 64 -58 42 -22 117 -87 166 -146 50 -59 108
-125 131 -147 44 -43 44 -110 0 -110 -33 0 -75 -49 -58 -67 7 -7 25 -3 40 9
14 13 58 19 97 14 50 -6 70 0 70 19 0 15 -8 22 -19 16 -21 -13 -50 24 -53 69
-1 17 -3 50 -5 75 -2 26 -16 45 -34 45 -17 0 -27 7 -21 16 5 9 -8 29 -29 45
-21 15 -39 35 -39 43 0 18 -74 96 -91 96 -7 0 -41 23 -77 50 -69 52 -121 64
-142 31z" />
    <path d="M4540 541 c0 -21 -9 -44 -20 -51 -30 -19 -24 -50 10 -50 20 0 30 20
30 58 0 32 11 63 25 69 15 6 11 10 -10 11 -22 1 -35 -13 -35 -37z" />
    <path d="M4613 507 c-24 -24 -14 -87 14 -87 15 0 43 -18 63 -40 20 -22 29 -40
19 -40 -45 0 31 -41 88 -47 35 -5 82 -24 104 -44 80 -72 96 1 18 83 -129 135
-267 213 -306 175z" />
    <path d="M1880 183 c0 -15 28 -31 153 -88 24 -11 53 -14 65 -6 12 7 22 4 22
-8 0 -13 48 -20 122 -18 l123 2 -78 37 c-105 49 -407 109 -407 81z" />
    <path d="M461 51 c-13 -16 -57 -32 -98 -37 -40 -4 31 -7 157 -7 127 0 196 3
155 8 -74 7 -98 32 -50 52 14 5 -12 11 -58 11 -49 1 -92 -10 -106 -27z" />
    <path d="M3337 18 c-16 -11 29 -17 113 -16 152 1 154 9 7 24 -51 5 -105 1
-120 -8z" />
  </g>
</svg>
